<?xml version="1.0" encoding="UTF-8" standalone="no"?>
<!-- Created with Inkscape (http://www.inkscape.org/) -->

<svg
   xmlns:dc="http://purl.org/dc/elements/1.1/"
   xmlns:cc="http://creativecommons.org/ns#"
   xmlns:rdf="http://www.w3.org/1999/02/22-rdf-syntax-ns#"
   xmlns:svg="http://www.w3.org/2000/svg"
   xmlns="http://www.w3.org/2000/svg"
   xmlns:xlink="http://www.w3.org/1999/xlink"
   xmlns:sodipodi="http://sodipodi.sourceforge.net/DTD/sodipodi-0.dtd"
   xmlns:inkscape="http://www.inkscape.org/namespaces/inkscape"
   sodipodi:docname="title.svg"
   inkscape:version="0.48.4 r9939"
   version="1.1"
   id="svg2"
   height="1052.3622047"
   width="744.09448819">
  <sodipodi:namedview
     id="base"
     pagecolor="#ffffff"
     bordercolor="#666666"
     borderopacity="1.0"
     inkscape:pageopacity="0.0"
     inkscape:pageshadow="2"
     inkscape:zoom="0.52999999"
     inkscape:cx="178.29596"
     inkscape:cy="-292.49052"
     inkscape:document-units="px"
     inkscape:current-layer="layer5"
     showgrid="false"
     inkscape:window-width="2498"
     inkscape:window-height="1417"
     inkscape:window-x="54"
     inkscape:window-y="-8"
     inkscape:window-maximized="1" />
  <defs
     id="defs4">
    <inkscape:path-effect
       effect="spiro"
       id="path-effect3229"
       is_visible="true" />
    <inkscape:path-effect
       effect="spiro"
       id="path-effect3225"
       is_visible="true" />
    <inkscape:path-effect
       effect="spiro"
       id="path-effect3217"
       is_visible="true" />
    <inkscape:path-effect
       effect="spiro"
       id="path-effect3197"
       is_visible="true" />
    <inkscape:path-effect
       effect="spiro"
       id="path-effect3193"
       is_visible="true" />
    <linearGradient
       id="linearGradient5256">
      <stop
         style="stop-color:#000000;stop-opacity:1;"
         offset="0"
         id="stop5258" />
      <stop
         id="stop5266"
         offset="0.5"
         style="stop-color:#000000;stop-opacity:0.49803922;" />
      <stop
         style="stop-color:#000000;stop-opacity:0;"
         offset="1"
         id="stop5260" />
    </linearGradient>
    <radialGradient
       cx="14.994452"
       cy="14.973981"
       r="14.994452"
       fx="14.994452"
       fy="14.973981"
       id="radialGradient3817"
       xlink:href="#linearGradient3809"
       gradientUnits="userSpaceOnUse"
       gradientTransform="matrix(1,0,0,0.99368415,0,0.09457343)" />
    <linearGradient
       id="linearGradient3809">
      <stop
         id="stop3811"
         style="stop-color:#ffffff;stop-opacity:1"
         offset="0" />
      <stop
         id="stop3813"
         style="stop-color:#d1edf1;stop-opacity:0.78431374"
         offset="1" />
    </linearGradient>
    <radialGradient
       inkscape:collect="always"
       xlink:href="#linearGradient3809"
       id="radialGradient6148"
       gradientUnits="userSpaceOnUse"
       gradientTransform="matrix(1,0,0,0.99368415,0,0.09457343)"
       cx="14.994452"
       cy="14.973981"
       fx="14.994452"
       fy="14.973981"
       r="14.994452" />
  </defs>
  <metadata
     id="metadata7">
    <rdf:RDF>
      <cc:Work
         rdf:about="">
        <dc:format>image/svg+xml</dc:format>
        <dc:type
           rdf:resource="http://purl.org/dc/dcmitype/StillImage" />
      </cc:Work>
    </rdf:RDF>
  </metadata>
  <g
     inkscape:label="Layer 1"
     inkscape:groupmode="layer"
     id="layer1" />
  <g
     inkscape:groupmode="layer"
     id="layer2"
     inkscape:label="Layer">
    <path
       style="fill:#fed8c1;stroke:#dfad85;stroke-width:3;stroke-linecap:butt;stroke-linejoin:miter;stroke-opacity:1;fill-opacity:1;stroke-miterlimit:4;stroke-dasharray:none"
       d="m 255.56859,606.37983 -13.13198,40.40611 -1.51523,62.12438 59.599,12.6269 18.18275,-56.06346 -12.12183,-19.1929 -9.09138,-46.46702 z"
       id="path5819"
       inkscape:connector-curvature="0" />
    <path
       style="fill:#fed8c1;stroke:#dfad85;stroke-width:3;stroke-linecap:butt;stroke-linejoin:miter;stroke-opacity:1;fill-opacity:1;stroke-miterlimit:4;stroke-dasharray:none"
       d="M 268.5625 408.0625 L 211.4375 460.9375 L 213.46875 480.5625 L 201.0625 471.28125 L 208.21875 529.5 L 217.53125 520.1875 L 227.15625 613.78125 C 227.15625 613.78125 337.14732 608.0625 335.71875 598.0625 C 335.04637 593.3559 338.19059 558.84417 341.6875 523.6875 C 343.8373 525.53216 346.0625 527.21824 346.0625 526.28125 C 346.0625 524.49554 357.84375 472 357.84375 472 L 346.46875 476.875 C 348.46276 457.90879 350 443.78125 350 443.78125 L 268.5625 408.0625 z "
       id="path2991" />
    <path
       style="fill:#ffcaf4;stroke:#ff9be9;stroke-width:3;stroke-linecap:butt;stroke-linejoin:miter;stroke-opacity:1;fill-opacity:1;stroke-miterlimit:4;stroke-dasharray:none"
       d="M 250,312.375 281.4375,343.78125 270,392.375 l -14.28125,-45.71875 -71.4375,-22.875 55.71875,32.875 -9.0625,25.625 L 174.28125,329.5 57.15625,440.9375 171.4375,373.78125 l 21.42857,34.28571 3.97768,34.58929 21.4375,22.84375 20.28125,-16 22.58482,11.72768 17.43304,-20.28572 23.9866,24.5625 22.87054,-22.85714 19.97768,31.43304 18.85714,-47.44643 28.57143,8.58482 -25.6875,70 67.125,-77.15625 -49.46875,-42.28125 30.90625,5.15625 -48.5625,-58.5625 -61.4375,30 -1.4375,-21.4375 z"
       id="path2986"
       inkscape:connector-curvature="0"
       sodipodi:nodetypes="ccccccccccccccccccccccccccccc" />
    <path
       style="fill:#fff8f8;stroke:none;stroke-width:3;stroke-linecap:butt;stroke-linejoin:miter;stroke-opacity:1;fill-opacity:1;stroke-miterlimit:4;stroke-dasharray:none"
       d="m 230,478.07647 7.14286,43.92857 c 0,0 27.14285,-1.78572 27.14285,-3.92857 0,-2.14286 4.64286,-46.78572 4.64286,-46.78572 z"
       id="path3002"
       inkscape:connector-curvature="0" />
    <path
       style="fill:#b3e5ee;fill-opacity:1;stroke:none"
       d="m 245.92349,521.54329 -3.92857,-31.97697 25.42213,-3.5931 -3.23595,32.8392 z"
       id="path3012"
       inkscape:connector-curvature="0"
       sodipodi:nodetypes="ccccc" />
    <path
       style="fill:#fff8f8;stroke:none;stroke-width:3;stroke-linecap:butt;stroke-linejoin:miter;stroke-opacity:1;fill-opacity:1;stroke-miterlimit:4;stroke-dasharray:none"
       d="m 295.35714,472.00504 1.42857,45.35714 25.35715,1.42857 6.07143,-50.71428 z"
       id="path3004"
       inkscape:connector-curvature="0" />
    <path
       style="fill:none;stroke:#000000;stroke-width:1px;stroke-linecap:butt;stroke-linejoin:miter;stroke-opacity:1"
       d="m 281.78571,522.36218 -1.07142,25.71429"
       id="path3008"
       inkscape:connector-curvature="0" />
    <path
       style="fill:none;stroke:#000000;stroke-width:1px;stroke-linecap:butt;stroke-linejoin:miter;stroke-opacity:1"
       d="m 267.5,555.93361 12.85714,-9.28571 11.42857,6.78571"
       id="path3010"
       inkscape:connector-curvature="0" />
    <path
       style="fill:#b3e5ee;fill-opacity:1;stroke:none"
       d="m 295.86222,485.84695 21.3673,0.35714 -1.82533,32.02031 -19.20649,-0.58802 z"
       id="path3014"
       inkscape:connector-curvature="0"
       sodipodi:nodetypes="ccccc" />
    <path
       style="fill:#fbdcf5;fill-opacity:1;stroke:none"
       d="m 220.32124,388.10185 -41.11157,-42.78547 -38.49538,25.89647 35.1317,-35.27924 z"
       id="path3784"
       inkscape:connector-curvature="0" />
    <path
       style="fill:#fbdcf5;fill-opacity:1;stroke:none"
       d="m 266.07143,398.19901 -14.28572,-51.83647 c 0,0 -18.92857,49.85798 -16.07142,45.901 2.85714,-3.95699 17.14285,-30.07308 17.14285,-30.07308 z"
       id="path3786"
       inkscape:connector-curvature="0" />
    <path
       style="fill:#fbdcf5;fill-opacity:1;stroke:none"
       d="m 272.77335,397.71932 c 10.14583,-26.04387 13.31642,-54.72987 13.31642,-54.72987 l -16.80406,-20.38216 19.97462,20.7596 c 0,0 -4.4388,33.21537 -16.48698,54.35243 z"
       id="path3788"
       inkscape:connector-curvature="0" />
    <path
       style="fill:#e5a6da;stroke:none;stroke-width:1px;stroke-linecap:butt;stroke-linejoin:miter;stroke-opacity:1;fill-opacity:1"
       d="m 178.57143,377.00504 17.14286,31.42857 3.92857,33.92857 11.78571,10.35714 -12.5,-46.78571 z"
       id="path3790"
       inkscape:connector-curvature="0" />
    <path
       style="fill:#fbdcf5;stroke:none;stroke-width:1px;stroke-linecap:butt;stroke-linejoin:miter;stroke-opacity:1;fill-opacity:1"
       d="m 365.71429,423.79075 32.85714,11.42857 c 0,0 -12.5,24.28572 -11.07143,23.21429 1.42857,-1.07143 21.07143,-27.5 21.07143,-27.5 z"
       id="path3792"
       inkscape:connector-curvature="0" />
    <path
       style="fill:#fbdcf5;fill-opacity:1;stroke:none"
       d="m 316.42857,365.86547 49.28572,-27.56928 32.14285,41.56599 -35,-29.26585 z"
       id="path3794"
       inkscape:connector-curvature="0" />
    <path
       style="fill:#e5a6da;stroke:none;stroke-width:1px;stroke-linecap:butt;stroke-linejoin:miter;stroke-opacity:1;fill-opacity:1"
       d="m 297.5,388.79075 45,-10.35714 30.71429,16.07143 -33.57143,-10.35714 z"
       id="path3796"
       inkscape:connector-curvature="0" />
    <path
       style="fill:#e5a6da;stroke:none;stroke-width:1px;stroke-linecap:butt;stroke-linejoin:miter;stroke-opacity:1;fill-opacity:1"
       d="m 262.5,404.86218 -17.5,-3.92857 -18.21429,32.14286 19.64286,-26.78572 z"
       id="path3798"
       inkscape:connector-curvature="0" />
    <path
       style="fill:#e5a6da;stroke:none;stroke-width:1px;stroke-linecap:butt;stroke-linejoin:miter;stroke-opacity:1;fill-opacity:1"
       d="m 341.07143,399.1479 -25.71429,-2.14286 -37.5,11.07143 L 312.5,393.79075 z"
       id="path3800"
       inkscape:connector-curvature="0" />
    <path
       style="fill:#e5a6da;fill-opacity:1;stroke:none"
       d="m 344.58158,466.96914 c 1.78571,-3.92857 -5.73351,-33.85242 -5.73351,-33.85242 l -9.31725,7.80202 z"
       id="path3802"
       inkscape:connector-curvature="0"
       sodipodi:nodetypes="cccc" />
    <path
       style="fill:#e5a6da;stroke:none;stroke-width:1px;stroke-linecap:butt;stroke-linejoin:miter;stroke-opacity:1;fill-opacity:1"
       d="m 283.57143,440.57647 13.57143,-0.71429 5,20.71429 z"
       id="path3804"
       inkscape:connector-curvature="0" />
    <path
       style="fill:#e5a6da;stroke:none;stroke-width:1px;stroke-linecap:butt;stroke-linejoin:miter;stroke-opacity:1;fill-opacity:1"
       d="M 240.71429,448.79075 260,459.1479 l -13.21429,-15 z"
       id="path3806"
       inkscape:connector-curvature="0" />
    <path
       style="fill:#dfad85;fill-opacity:1;stroke:none"
       d="m 231.42857,459.50504 28.21428,2.5 -21.78571,-10.35714 z"
       id="path5795"
       inkscape:connector-curvature="0" />
    <path
       style="fill:#dfad85;stroke:none;stroke-width:1px;stroke-linecap:butt;stroke-linejoin:miter;stroke-opacity:1;fill-opacity:1"
       d="M 273.57143,451.29075 300,465.93361 278.21429,444.50504 z"
       id="path5797"
       inkscape:connector-curvature="0" />
    <path
       style="fill:#dfad85;stroke:none;stroke-width:1px;stroke-linecap:butt;stroke-linejoin:miter;stroke-opacity:1;fill-opacity:1"
       d="m 318.92857,453.79075 22.5,18.92857 -16.42857,-25 z"
       id="path5799"
       inkscape:connector-curvature="0" />
    <path
       style="fill:#dfad85;fill-opacity:1;stroke:none"
       d="m 218.39811,523.18479 8.95024,90.29587 32.62998,-2.43872 -24.26404,-24.39404 z"
       id="path5801"
       inkscape:connector-curvature="0"
       sodipodi:nodetypes="ccccc" />
    <path
       style="color:#000000;fill:#fed8c1;fill-opacity:1;fill-rule:nonzero;stroke:#dfad85;stroke-width:3;stroke-linecap:butt;stroke-linejoin:miter;stroke-miterlimit:4;stroke-opacity:1;stroke-dasharray:none;stroke-dashoffset:0;marker:none;visibility:visible;display:inline;overflow:visible;enable-background:accumulate"
       d="m 23.34375,692.9375 -5.90625,2.125 0,5.1875 -9.875,-6.15625 -1.90625,7.09375 -6.125,-2.375 -0.46875,8.5 -8.5,-2.34375 -0.46875,7.0625 -6.59375,-1.40625 0.707547,7.29245 21.2187502,17.9375 0.2299528,-0.0112 81.21875,91.25 L 190.90625,730.625 146.46875,704.875 82.3125,778.625 26.412146,720.78125 26.40625,720.0625 26.875,700 z"
       id="path5851"
       inkscape:connector-curvature="0"
       sodipodi:nodetypes="ccccccccccccccccccccc" />
    <path
       style="color:#000000;fill:#fed8c1;fill-opacity:1;fill-rule:nonzero;stroke:#dfad85;stroke-width:3;stroke-linecap:butt;stroke-linejoin:miter;stroke-miterlimit:4;stroke-opacity:1;stroke-dasharray:none;stroke-dashoffset:0;marker:none;visibility:visible;display:inline;overflow:visible;enable-background:accumulate"
       d="m 477.34375,580.53125 -3.53125,7.09375 1.1763,21.2105 L 475,608.21875 433.34375,736.6875 399,697.28125 l -15.65625,43.4375 53.03125,61.625 59.53125,-178.09375 0.0147,0.21639 0.079,-0.27889 21.21875,-17.9375 0,-8 -6.59375,1.40625 -0.46875,-7.09375 -8.5,2.375 -0.46875,-8.5 -6.125,2.375 -1.90625,-7.09375 -9.90625,6.125 0,-5.1875 z"
       id="path5853"
       inkscape:connector-curvature="0"
       sodipodi:nodetypes="cccccccccccccccccccccc" />
    <path
       style="fill:#000000;fill-opacity:1;stroke:#000000;stroke-width:1px;stroke-linecap:butt;stroke-linejoin:miter;stroke-opacity:1"
       d="m 276.7818,684.66665 -33.33504,-40.91117 -52.52793,2.52538 -50.00255,64.64977 26.02412,50.0069 21.66226,-20.70197 -6.7752,262.62914 218.84596,-1.1782 -43.79371,-272.70529 29.1465,27.04914 17.02466,-57.22156 -53.03301,-56.56854 -44.44671,2.02031 z"
       id="path5817"
       inkscape:connector-curvature="0"
       sodipodi:nodetypes="cccccccccccccc" />
    <path
       style="fill:none;stroke:#000000;stroke-width:1px;stroke-linecap:butt;stroke-linejoin:miter;stroke-opacity:1"
       d="m 237.00704,522.15836 27.14785,-3.28299"
       id="path5821"
       inkscape:connector-curvature="0" />
    <path
       style="fill:none;stroke:#000000;stroke-width:1px;stroke-linecap:butt;stroke-linejoin:miter;stroke-opacity:1"
       d="m 229.68344,478.343 39.26968,-7.07107"
       id="path5823"
       inkscape:connector-curvature="0" />
    <path
       style="fill:none;stroke:#000000;stroke-width:1px;stroke-linecap:butt;stroke-linejoin:miter;stroke-opacity:1"
       d="m 295.34335,472.15581 33.20877,-4.04061"
       id="path5825"
       inkscape:connector-curvature="0" />
    <path
       style="fill:none;stroke:#000000;stroke-width:1px;stroke-linecap:butt;stroke-linejoin:miter;stroke-opacity:1"
       d="m 296.47977,517.48641 25.50635,1.38896"
       id="path5827"
       inkscape:connector-curvature="0" />
    <path
       style="fill:#dfad85;stroke:none;stroke-width:1px;stroke-linecap:butt;stroke-linejoin:miter;stroke-opacity:1;color:#000000;fill-opacity:1;fill-rule:nonzero;marker:none;visibility:visible;display:inline;overflow:visible;enable-background:accumulate"
       d="m 254.55844,612.94582 -10.85914,31.31473 c 0,0 31.06219,37.62819 30.55712,36.61803 -0.50508,-1.01015 -13.38452,-39.90102 -13.38452,-39.90102 l 5.05076,-30.05204 z"
       id="path5901"
       inkscape:connector-curvature="0" />
    <path
       style="color:#000000;fill:#dfad85;fill-opacity:1;fill-rule:nonzero;stroke:none;stroke-width:1px;marker:none;visibility:visible;display:inline;overflow:visible;enable-background:accumulate"
       d="M 86.785714,826.6479 C 87.5,825.21933 95,818.79075 95,818.79075 L 4.5687332,735.53603 4.2857143,735.93361 z"
       id="path5917"
       inkscape:connector-curvature="0"
       sodipodi:nodetypes="ccccc" />
    <path
       style="fill:#85c3cd;fill-opacity:1;stroke:none"
       d="m 248.45519,512.91377 -3.57734,-23.903 23.14929,-2.68587 -2.94665,24.54751 z"
       id="path3012-6"
       inkscape:connector-curvature="0"
       sodipodi:nodetypes="ccccc" />
    <path
       sodipodi:type="arc"
       style="color:#000000;fill:#060606;fill-opacity:1;fill-rule:nonzero;stroke:none;stroke-width:3;marker:none;visibility:visible;display:inline;overflow:visible;enable-background:accumulate"
       id="path5925-9"
       sodipodi:cx="255"
       sodipodi:cy="504.86218"
       sodipodi:rx="7.5"
       sodipodi:ry="13.928572"
       d="m 262.5,504.86218 a 7.5,13.928572 0 1 1 -15,0 7.5,13.928572 0 1 1 15,0 z"
       transform="matrix(0.71670366,0.1594903,-0.07432052,0.46233411,115.78465,220.76222)" />
    <path
       sodipodi:type="arc"
       style="color:#000000;fill:#ffffff;fill-opacity:1;fill-rule:nonzero;stroke:none;stroke-width:3;marker:none;visibility:visible;display:inline;overflow:visible;enable-background:accumulate"
       id="path5925"
       sodipodi:cx="255"
       sodipodi:cy="504.86218"
       sodipodi:rx="7.5"
       sodipodi:ry="13.928572"
       d="m 262.5,504.86218 a 7.5,13.928572 0 1 1 -15,0 7.5,13.928572 0 1 1 15,0 z"
       transform="matrix(0.40348155,0.08978801,-0.04184011,0.26027952,179.75356,338.77524)" />
    <path
       style="color:#000000;fill:#85c3cd;fill-opacity:1;fill-rule:nonzero;stroke:none;marker:none;visibility:visible;display:inline;overflow:visible;enable-background:accumulate"
       d="m 295.70043,485.64032 18.73128,0.27914 -1.60014,25.02724 -16.83705,-0.4596 z"
       id="path3014-0"
       inkscape:connector-curvature="0"
       sodipodi:nodetypes="ccccc" />
    <path
       sodipodi:type="arc"
       style="color:#000000;fill:#000000;fill-opacity:1;fill-rule:nonzero;stroke:none;stroke-width:3;marker:none;visibility:visible;display:inline;overflow:visible;enable-background:accumulate"
       id="path5925-2-4"
       sodipodi:cx="255"
       sodipodi:cy="504.86218"
       sodipodi:rx="7.5"
       sodipodi:ry="13.928572"
       d="m 262.5,504.86218 a 7.5,13.928572 0 1 1 -15,0 7.5,13.928572 0 1 1 15,0 z"
       transform="matrix(0.70799296,0.10248243,-0.03835819,0.45462376,141.18951,237.55939)" />
    <path
       sodipodi:type="arc"
       style="color:#000000;fill:#ffffff;fill-opacity:1;fill-rule:nonzero;stroke:none;stroke-width:3;marker:none;visibility:visible;display:inline;overflow:visible;enable-background:accumulate"
       id="path5925-2"
       sodipodi:cx="255"
       sodipodi:cy="504.86218"
       sodipodi:rx="7.5"
       sodipodi:ry="13.928572"
       d="m 262.5,504.86218 a 7.5,13.928572 0 1 1 -15,0 7.5,13.928572 0 1 1 15,0 z"
       transform="matrix(0.40775787,0.05902321,-0.02209182,0.2618337,208.78222,344.49633)" />
    <path
       style="fill:none;stroke:#000000;stroke-width:1px;stroke-linecap:butt;stroke-linejoin:miter;stroke-opacity:1"
       d="m 260.61936,584.66155 53.53808,-12.12183"
       id="path6016"
       inkscape:connector-curvature="0" />
    <path
       style="color:#000000;fill:#dfad85;fill-opacity:1;fill-rule:nonzero;stroke:none;stroke-width:1px;marker:none;visibility:visible;display:inline;overflow:visible;enable-background:accumulate"
       d="m 389.73219,746.53504 46.81256,54.33111 6.27023,-20.17347 -8.85272,7.99026 -41.50943,-51.30555 z"
       id="path3919"
       inkscape:connector-curvature="0"
       sodipodi:nodetypes="cccccc" />
  </g>
  <g
     inkscape:groupmode="layer"
     id="layer3"
     inkscape:label="Layer#1">
    <path
       style="fill:#d9a066;stroke:none;stroke-width:1px;stroke-linecap:butt;stroke-linejoin:miter;stroke-opacity:1;fill-opacity:1"
       d="m -65.714286,996.6479 -202.857144,205.7143 1177.14286,10 -172.85714,-255.7143 z"
       id="path6179"
       inkscape:connector-curvature="0" />
    <path
       style="fill:#eaeaea;stroke:#a4a4a4;stroke-width:2;stroke-linecap:butt;stroke-linejoin:miter;stroke-opacity:1;fill-opacity:1;stroke-miterlimit:4;stroke-dasharray:none"
       d="M 30.304576,878.61594 93.944187,1097.819 460.62956,1094.7886 510.12704,832.14893 z"
       id="path6055"
       inkscape:connector-curvature="0" />
    <g
       id="g6139"
       transform="matrix(2.3361833,-0.22003275,0.22003275,2.3361833,-1349.3885,-695.99519)">
      <g
         id="layer1-6"
         transform="translate(607.25397,-271.88337)">
        <path
           style="fill:#ffffff;fill-opacity:0.55026455;fill-rule:nonzero;stroke:none"
           id="path2995"
           transform="translate(0,1022.3622)"
           d="m 18.169642,8.59375 a 6.4732141,2.5223215 0 1 1 -12.9464279,0 6.4732141,2.5223215 0 1 1 12.9464279,0 z"
           inkscape:connector-curvature="0" />
        <path
           style="fill:url(#radialGradient6148);fill-opacity:1;fill-rule:nonzero;stroke:none"
           id="path3791"
           transform="matrix(1.00037,0,0,1.0067283,0,1022.2875)"
           d="m 29.988905,14.973981 a 14.994453,14.89975 0 1 1 -29.988905,0 14.994453,14.89975 0 1 1 29.988905,0 z"
           inkscape:connector-curvature="0" />
      </g>
      <g
         style="display:inline"
         id="layer2-0"
         transform="translate(607.25397,750.4788)">
        <path
           style="fill:none;stroke:#2a4448;stroke-width:0.79196137px;stroke-linecap:butt;stroke-linejoin:miter;stroke-opacity:1"
           id="path3794-3"
           d="M 4.3785326,17.978165 15.153557,7.20314 26.178582,17.978164 z"
           inkscape:connector-curvature="0" />
      </g>
      <g
         id="layer3-6"
         transform="translate(607.25397,750.4788)">
        <path
           style="fill:#111111;fill-opacity:0.7254902;fill-rule:nonzero;stroke:none"
           id="path3807"
           transform="translate(4.8660714,1.3392857)"
           d="m 15.625,13.080358 a 5.4017859,2.0982144 0 1 1 -10.8035717,0 5.4017859,2.0982144 0 1 1 10.8035717,0 z"
           inkscape:connector-curvature="0" />
      </g>
    </g>
    <path
       style="fill:#ffffff;stroke:none;stroke-width:1px;stroke-linecap:butt;stroke-linejoin:miter;stroke-opacity:1;fill-opacity:1"
       d="M 521.42857,992.36218 720,972.36218 845.71429,1183.7908 530,1178.0765 z"
       id="path6195"
       inkscape:connector-curvature="0" />
    <path
       style="fill:#a8743f;stroke:none;stroke-width:1px;stroke-linecap:butt;stroke-linejoin:miter;stroke-opacity:1;color:#000000;fill-opacity:1;fill-rule:nonzero;marker:none;visibility:visible;display:inline;overflow:visible;enable-background:accumulate"
       d="m -267.92453,1202.8339 0,33.0188 1177.35849,-0.4716 -1.88679,-23.1133 z"
       id="path6197"
       inkscape:connector-curvature="0" />
    <flowRoot
       xml:space="preserve"
       id="flowRoot6237"
       style="font-size:40px;font-style:normal;font-weight:normal;line-height:125%;letter-spacing:0px;word-spacing:0px;fill:#000000;fill-opacity:1;stroke:none;font-family:Sans"><flowRegion
         id="flowRegion6239"><rect
           id="rect6241"
           width="264.16443"
           height="66.708183"
           x="680.42352"
           y="391.95114" /></flowRegion><flowPara
         id="flowPara6243"
         style="line-height:140.99999761999999000%;font-size:72px">XML</flowPara></flowRoot>    <path
       style="fill:#000000;fill-opacity:0.07843137;stroke:none"
       d="m 460.62003,1095.0555 21.34662,113.0703 c 0,0 -560.68231,-1.6677 -559.348147,-2.3348 31.706852,-15.8541 171.106499,-107.7337 171.106499,-107.7337 z"
       id="path3917"
       inkscape:connector-curvature="0"
       sodipodi:nodetypes="ccscc" />
  </g>
  <g
     inkscape:groupmode="layer"
     id="layer5"
     inkscape:label="Layer#3">
    <path
       style="fill:#5fffde;stroke:none;stroke-width:1px;stroke-linecap:butt;stroke-linejoin:miter;stroke-opacity:1;fill-opacity:1"
       d="m 540.00277,1130.4108 2.00125,35.6888 82.38461,2.3348 -4.66957,-39.0243 z"
       id="path3939"
       inkscape:connector-curvature="0" />
    <path
       style="fill:none;stroke:#004da9;stroke-width:1px;stroke-linecap:butt;stroke-linejoin:miter;stroke-opacity:1"
       d="m 584.03018,1123.7399 -2.00125,-30.0186"
       id="path3941"
       inkscape:connector-curvature="0" />
    <path
       style="fill:#ffc55f;stroke:none;stroke-width:1px;stroke-linecap:butt;stroke-linejoin:miter;stroke-opacity:1;fill-opacity:1"
       d="m 579.02706,1071.374 -18.01121,10.3398 21.01308,10.0062 17.01059,-8.6721 z"
       id="path3943"
       inkscape:connector-curvature="0" />
    <path
       style="fill:none;stroke:#004da9;stroke-width:1px;stroke-linecap:butt;stroke-linejoin:miter;stroke-opacity:1"
       d="m 604.04263,1082.0473 35.35534,-8.3385"
       id="path3945"
       inkscape:connector-curvature="0" />
    <path
       style="fill:none;stroke:#004da9;stroke-width:1px;stroke-linecap:butt;stroke-linejoin:miter;stroke-opacity:1"
       d="m 578.69352,1068.7057 -18.01121,-28.351"
       id="path3947"
       inkscape:connector-curvature="0" />
    <path
       style="fill:#ff5f5f;stroke:none;stroke-width:1px;stroke-linecap:butt;stroke-linejoin:miter;stroke-opacity:1;fill-opacity:1"
       d="m 530.66363,1017.0068 1.00062,23.6814 53.70009,-4.336 -3.00187,-30.0187 z"
       id="path3949"
       inkscape:connector-curvature="0" />
    <path
       style="fill:#ff5fc9;stroke:none;stroke-width:1px;stroke-linecap:butt;stroke-linejoin:miter;stroke-opacity:1;fill-opacity:1"
       d="m 647.06942,1063.0355 3.33541,36.6895 c 0,0 63.37278,3.3354 63.37278,0.6671 0,-2.6683 -22.0137,-51.3653 -22.0137,-51.3653 z"
       id="path3167"
       inkscape:connector-curvature="0" />
    <path
       style="fill:none;stroke:#004da9;stroke-width:1px;stroke-linecap:butt;stroke-linejoin:miter;stroke-opacity:1"
       d="m 669.08313,1044.3572 28.01743,-36.0224"
       id="path3169"
       inkscape:connector-curvature="0" />
    <path
       style="fill:none;stroke:#004da9;stroke-width:1px;stroke-linecap:butt;stroke-linejoin:miter;stroke-opacity:1"
       d="m 683.09185,1107.0629 68.70943,41.3591"
       id="path3171"
       inkscape:connector-curvature="0" />
    <path
       style="fill:#ffc55f;stroke:none;stroke-width:1px;stroke-linecap:butt;stroke-linejoin:miter;stroke-opacity:1;color:#000000;fill-opacity:1;fill-rule:nonzero;marker:none;visibility:visible;display:inline;overflow:visible;enable-background:accumulate"
       d="m 758.4721,1139.0828 9.33914,35.3554 c 0,0 72.71193,5.3366 68.04236,2.6683 -4.66958,-2.6683 -26.0162,-41.3591 -26.0162,-41.3591 z"
       id="path3177"
       inkscape:connector-curvature="0" />
    <path
       style="fill:none;stroke:#004da9;stroke-width:1px;stroke-linecap:butt;stroke-linejoin:miter;stroke-opacity:1;color:#000000;stroke-miterlimit:4;stroke-dasharray:none;stroke-dashoffset:0;marker:none;visibility:visible;display:inline;overflow:visible;enable-background:accumulate"
       d="m 755.13669,1068.3721 c -0.42909,-0.1609 -0.93537,-0.098 -1.31205,0.163 -0.37667,0.261 -0.61335,0.7129 -0.61335,1.1712 0,0.4583 0.23668,0.9102 0.61335,1.1712 0.37668,0.2611 0.88296,0.3239 1.31205,0.163 0.2695,-0.1011 0.50687,-0.286 0.67081,-0.5226 0.16394,-0.2366 0.25372,-0.5238 0.25372,-0.8116 0,-0.2878 -0.0898,-0.575 -0.25372,-0.8116 -0.16394,-0.2366 -0.40131,-0.4215 -0.67081,-0.5226 -0.41152,-0.1544 -0.87818,-0.1093 -1.2892,0.046 -0.41102,0.1557 -0.77451,0.4145 -1.11787,0.6888 -0.34336,0.2744 -0.67296,0.568 -1.04121,0.8079 -0.36825,0.24 -0.78291,0.4266 -1.22129,0.4582 -0.35633,0.026 -0.71423,-0.052 -1.04767,-0.1806 -0.33344,-0.1282 -0.6454,-0.3058 -0.95358,-0.4865 -0.52224,-0.3062 -1.03935,-0.6244 -1.59006,-0.8758 -0.55071,-0.2515 -1.14036,-0.4361 -1.74535,-0.4584 -0.22222,-0.01 -0.44471,0 -0.66708,0 l -1.33417,0 c -0.33704,0 -0.67339,-0.026 -1.00779,-0.068 -0.16719,-0.021 -0.33516,-0.041 -0.50365,-0.038 -0.1685,0 -0.33938,0.031 -0.4898,0.1067 -0.14139,0.071 -0.25891,0.1826 -0.36324,0.3018 -0.10432,0.1192 -0.19757,0.2478 -0.30384,0.3653 -0.3419,0.3779 -0.82574,0.6322 -1.33417,0.6671 -0.22189,0.015 -0.44467,0 -0.66708,0 l -0.66708,0 c -0.22447,0 -0.44853,0.017 -0.67141,0.043 -0.11143,0.013 -0.22333,0.026 -0.33555,0.024 -0.11223,-0 -0.2259,-0.019 -0.3272,-0.068 -0.10114,-0.048 -0.18663,-0.1262 -0.25185,-0.2173 -0.0652,-0.091 -0.11083,-0.1952 -0.14283,-0.3026 -0.064,-0.2148 -0.0744,-0.4412 -0.10683,-0.663 -0.0324,-0.2218 -0.0913,-0.4485 -0.23433,-0.6211 -0.0715,-0.086 -0.16366,-0.1568 -0.2691,-0.1948 -0.10543,-0.038 -0.22435,-0.042 -0.32923,-0 -0.11996,0.045 -0.21537,0.145 -0.26772,0.262 -0.0523,0.117 -0.0639,0.2498 -0.0463,0.3767 0.035,0.254 0.17873,0.4777 0.31405,0.6954 0.19855,0.3195 0.39067,0.6578 0.43317,1.0316 0.0213,0.1868 0.003,0.3801 -0.0684,0.554 -0.0716,0.174 -0.19874,0.3274 -0.36479,0.4157 -0.11762,0.063 -0.25212,0.091 -0.38531,0.088 -0.1332,-0 -0.26499,-0.037 -0.38543,-0.094 -0.24088,-0.1139 -0.432,-0.3153 -0.57432,-0.5405 -0.28463,-0.4506 -0.38809,-0.9946 -0.65618,-1.4552 -0.13607,-0.2338 -0.3181,-0.4469 -0.55314,-0.5808 -0.11752,-0.067 -0.24739,-0.1132 -0.38158,-0.1299 -0.1342,-0.017 -0.2727,-0 -0.39945,0.044 -0.15024,0.056 -0.28021,0.1577 -0.38806,0.2763 -0.10785,0.1186 -0.19519,0.2542 -0.27902,0.3908 -0.16933,0.276 -0.32782,0.5611 -0.53794,0.8075 -0.21012,0.2464 -0.4804,0.4552 -0.79622,0.5267 -0.2181,0.049 -0.44563,0.031 -0.66708,0 -1.12487,-0.1576 -2.20003,-0.6342 -3.33541,-0.6671 -0.22228,-0.01 -0.44472,0 -0.66709,0 l -1.33416,0 -2.66833,0 c -0.0585,0 -0.11712,-0 -0.1749,-0.01 -0.0578,-0.01 -0.1142,-0.025 -0.17058,-0.04 -0.0564,-0.015 -0.11409,-0.03 -0.17249,-0.027 -0.0292,0 -0.0584,0.01 -0.0847,0.02 -0.0263,0.013 -0.0496,0.032 -0.0644,0.058 -0.0193,0.033 -0.023,0.074 -0.0124,0.1103 0.0106,0.036 0.035,0.068 0.066,0.09 0.031,0.022 0.0684,0.034 0.10625,0.038 0.0379,0 0.0763,-0 0.11272,-0.013 0.0729,-0.022 0.13713,-0.065 0.19919,-0.1092 0.062,-0.044 0.12421,-0.09 0.19526,-0.1168 0.0794,-0.03 0.16779,-0.036 0.25082,-0.018 0.083,0.018 0.16051,0.06 0.22267,0.118 0.0622,0.058 0.10902,0.1319 0.13674,0.2123 0.0277,0.08 0.0364,0.167 0.0271,0.2515 -0.0186,0.169 -0.10949,0.3262 -0.23755,0.4381 -0.12806,0.1118 -0.29113,0.1797 -0.45896,0.2069 -0.33565,0.054 -0.67659,-0.049 -0.99036,-0.1801 -0.31378,-0.131 -0.61894,-0.2919 -0.95172,-0.3618 -0.3271,-0.069 -0.66552,-0.049 -0.99923,-0.03 -0.3337,0.019 -0.66779,0.03 -1.00202,0.03 l -4.66957,0"
       id="path3191"
       inkscape:path-effect="#path-effect3193"
       inkscape:original-d="m 755.13669,1068.3721 c 0,0.8895 0.88944,2.6684 0,2.6684 -0.88944,0 0.8805,-2.5426 0,-2.6684 -1.67643,-0.2394 -3.06303,1.4658 -4.66957,2.0013 -2.49128,0.8304 -0.42386,-0.2727 -2.00125,-0.6671 -5.74061,-1.4351 1.40299,1.8248 -3.33541,-1.3342 -0.18501,-0.1233 -0.44472,0 -0.66708,0 -0.44472,0 -0.88944,0 -1.33417,0 -0.66708,0 -1.35408,-0.1617 -2.00124,0 -0.30508,0.076 -0.40543,0.4927 -0.66708,0.6671 -0.41371,0.2758 -0.86247,0.5099 -1.33417,0.6671 -0.21095,0.07 -0.44472,0 -0.66708,0 -0.22236,0 -0.44472,0 -0.66708,0 -0.44472,0 -0.97839,0.2668 -1.33416,0 -0.64139,-0.481 -0.61708,-1.6427 -1.33417,-2.0012 -0.39777,-0.1989 0,0.8894 0,1.3341 0,0.6671 0.66708,2.0013 0,2.0013 -0.94339,0 -1.26457,-1.4119 -2.00124,-2.0013 -0.38826,-0.3106 -0.83695,-0.6671 -1.33417,-0.6671 -0.31446,0 -0.44472,0.4448 -0.66708,0.6671 -0.44472,0.4448 -0.81086,0.9853 -1.33416,1.3342 -0.18502,0.1233 -0.44472,0 -0.66708,0 -1.75877,0 0.26965,0.054 -3.33541,-0.6671 -0.21805,-0.044 -0.44473,0 -0.66709,0 -0.44472,0 -0.88944,0 -1.33416,0 -0.88944,0 -1.77888,0 -2.66833,0 -0.22236,0 -0.66708,0.2224 -0.66708,0 0,-0.2223 0.86597,-0.099 0.66708,0 -0.62893,0.3145 -1.30764,0.5515 -2.00124,0.6671 -0.65801,0.1097 -1.33417,0 -2.00125,0 -1.55652,0 -3.11305,0 -4.66957,0"
       inkscape:connector-curvature="0" />
    <path
       style="fill:none;stroke:#004da9;stroke-width:1px;stroke-linecap:butt;stroke-linejoin:miter;stroke-opacity:1;color:#000000;stroke-miterlimit:4;stroke-dasharray:none;stroke-dashoffset:0;marker:none;visibility:visible;display:inline;overflow:visible;enable-background:accumulate"
       d="m 750.46712,1057.6988 c -0.97644,1.1857 -2.46804,1.9316 -4.0025,2.0013 -0.44431,0.02 -0.8894,0 -1.33416,0 l -2.66833,0 -3.33541,0 c -0.33848,0 -0.67599,0.031 -1.01075,0.081 -0.16738,0.025 -0.33585,0.049 -0.50505,0.045 -0.1692,-0 -0.34166,-0.037 -0.48544,-0.1266 -0.13428,-0.083 -0.2353,-0.2097 -0.33354,-0.3335 -0.0982,-0.1239 -0.19926,-0.2502 -0.33354,-0.3336 -0.14378,-0.089 -0.31624,-0.1229 -0.48544,-0.1266 -0.1692,-0 -0.33768,0.02 -0.50506,0.045 -0.33476,0.05 -0.67227,0.081 -1.01075,0.081 l -2.00125,0 -1.33416,0 c -0.22236,0 -0.44473,0 -0.66708,0 -0.53204,-0.01 -1.07411,-0.048 -1.56696,-0.2486 -0.24643,-0.1002 -0.47829,-0.2399 -0.67143,-0.4229 -0.19315,-0.1829 -0.34678,-0.41 -0.42994,-0.6627 -0.0821,-0.2493 -0.0945,-0.517 -0.17084,-0.7681 -0.0381,-0.1256 -0.093,-0.2477 -0.17525,-0.3499 -0.0823,-0.1023 -0.19374,-0.1839 -0.32099,-0.2161 -0.1081,-0.027 -0.22161,-0.02 -0.33287,-0.012 -0.11126,0.01 -0.2227,0.012 -0.33421,0.012 l -1.33417,0 c -0.22247,0 -0.44578,-0.023 -0.66708,0 -0.2024,0.021 -0.39737,0.093 -0.5752,0.1916 -0.17784,0.099 -0.3395,0.2245 -0.49288,0.3582 -0.30676,0.2674 -0.58637,0.5713 -0.93316,0.7843 -0.288,0.1769 -0.61534,0.2864 -0.89078,0.4822 -0.13773,0.098 -0.2621,0.2183 -0.34636,0.3648 -0.0843,0.1465 -0.12618,0.3207 -0.097,0.4872 0.0205,0.1172 0.0748,0.2264 0.0963,0.3434 0.0108,0.058 0.0132,0.1194 -0.001,0.1772 -0.0144,0.058 -0.0465,0.1122 -0.0952,0.1465 -0.0462,0.033 -0.10412,0.045 -0.1607,0.047 -0.0566,0 -0.11287,-0.01 -0.16871,-0.017 -0.11168,-0.018 -0.22448,-0.03 -0.33767,-0.03 l -1.33416,0 -0.66708,0 -1.33417,1.3341 c -0.10149,-0.056 -0.21745,-0.086 -0.33354,-0.086 -0.11609,0 -0.23205,0.03 -0.33354,0.086 -0.13816,0.077 -0.24528,0.1982 -0.34497,0.3209 -0.0997,0.1226 -0.19645,0.2504 -0.32211,0.3462 -0.18169,0.1386 -0.41316,0.2007 -0.64152,0.2091 -0.22835,0.01 -0.45555,-0.034 -0.67805,-0.086 -0.22249,-0.052 -0.44302,-0.1146 -0.669,-0.1485 -0.22599,-0.034 -0.46018,-0.038 -0.67976,0.025 -0.19567,0.056 -0.37313,0.1646 -0.53223,0.2916 -0.1591,0.1271 -0.30161,0.2734 -0.44645,0.4165 -0.14485,0.1431 -0.29334,0.2841 -0.46177,0.3986 -0.16843,0.1144 -0.35879,0.2019 -0.5608,0.2275 -0.22077,0.028 -0.44455,0 -0.66708,0 l -1.33416,0 -2.00125,0 c -0.22241,0 -0.44515,0.014 -0.66708,0 -0.50955,-0.033 -1.00187,-0.2794 -1.33416,-0.6671"
       id="path3195"
       inkscape:path-effect="#path-effect3197"
       inkscape:original-d="m 750.46712,1057.6988 c -1.33417,0.6671 -2.60583,1.4775 -4.0025,2.0013 -0.4164,0.1561 -0.88944,0 -1.33416,0 -0.88944,0 -1.77888,0 -2.66833,0 -1.1118,0 -2.2236,0 -3.33541,0 -0.66708,0 -1.35408,0.1618 -2.00124,0 -0.30508,-0.076 -0.36201,-0.5908 -0.66708,-0.6671 -0.64717,-0.1618 -1.33417,0 -2.00125,0 -0.66708,0 -1.33416,0 -2.00125,0 -0.44472,0 -0.88944,0 -1.33416,0 -0.22236,0 -0.46062,0.083 -0.66708,0 -0.9233,-0.3693 -1.89181,-0.7129 -2.66833,-1.3342 -0.38826,-0.3106 -0.3155,-0.9825 -0.66708,-1.3341 -0.15723,-0.1573 -0.44472,0 -0.66708,0 -0.44472,0 -0.88944,0 -1.33417,0 -0.22236,0 -0.45613,-0.07 -0.66708,0 -1.21157,0.4038 -1.238,0.5709 -2.00124,1.3341 -0.44472,0.4448 -0.9853,0.8109 -1.33417,1.3342 -0.12334,0.185 0.15724,0.5099 0,0.6671 -0.15723,0.1572 -0.44472,0 -0.66708,0 -0.44472,0 -0.88944,0 -1.33416,0 -0.22236,0 -0.48207,-0.1234 -0.66708,0 -0.44473,0.4447 -0.88945,0.8894 -1.33417,1.3341 -0.22236,0 -0.4682,-0.099 -0.66708,0 -0.28127,0.1407 -0.35872,0.6055 -0.66708,0.6671 -0.87217,0.1745 -1.81311,-0.2443 -2.66833,0 -0.77089,0.2203 -1.28415,0.9756 -2.00125,1.3342 -0.19888,0.099 -0.44472,0 -0.66708,0 -0.44472,0 -0.88944,0 -1.33416,0 -0.66708,0 -1.33416,0 -2.00125,0 -0.22236,0 -0.45613,0.07 -0.66708,0 -0.4717,-0.1572 -0.88944,-0.4447 -1.33416,-0.6671"
       inkscape:connector-curvature="0" />
    <path
       style="fill:none;stroke:#004da9;stroke-width:1px;stroke-linecap:butt;stroke-linejoin:miter;stroke-opacity:1;color:#000000;stroke-miterlimit:4;stroke-dasharray:none;stroke-dashoffset:0;marker:none;visibility:visible;display:inline;overflow:visible;enable-background:accumulate"
       d="m 701.10306,1137.7487 0,-6.0038 0,-0.6671 c 0,-0.1115 0.005,-0.223 0.0129,-0.3343 0.008,-0.1112 0.0163,-0.2251 -0.0129,-0.3327 -0.0247,-0.091 -0.0766,-0.1732 -0.14463,-0.238 -0.068,-0.065 -0.15179,-0.1123 -0.241,-0.1419 -0.17842,-0.059 -0.37418,-0.047 -0.55621,3e-4 -0.36405,0.094 -0.68829,0.3194 -1.05941,0.3796 -0.22889,0.037 -0.46385,0.01 -0.69005,-0.042 -0.22619,-0.051 -0.44675,-0.1244 -0.67204,-0.1793 -0.22529,-0.055 -0.45843,-0.091 -0.68892,-0.066 -0.23049,0.025 -0.45966,0.1173 -0.61732,0.2873 -0.17116,0.1846 -0.24163,0.4379 -0.31404,0.679 -0.0362,0.1206 -0.0745,0.2411 -0.12938,0.3543 -0.0549,0.1133 -0.12744,0.2197 -0.22366,0.3008 -0.0975,0.082 -0.21622,0.1359 -0.33774,0.1748 -0.12153,0.039 -0.24698,0.064 -0.3707,0.095 -0.12372,0.031 -0.24697,0.069 -0.35817,0.1316 -0.11119,0.063 -0.21044,0.1517 -0.26755,0.2658 -0.0508,0.1014 -0.066,0.2177 -0.061,0.3309 0.005,0.1133 0.0293,0.2248 0.0541,0.3354 0.0248,0.1107 0.0502,0.2218 0.0576,0.3349 0.007,0.1132 -0.004,0.2296 -0.0507,0.333 -0.065,0.1447 -0.19157,0.2513 -0.31805,0.347 -0.12648,0.096 -0.25993,0.1889 -0.34903,0.3201 -0.0953,0.1403 -0.13176,0.3136 -0.13576,0.4832 -0.004,0.1695 0.0218,0.3383 0.0486,0.5057 0.0537,0.335 0.0871,0.6731 0.0871,1.0123 l 0,2.0012 c 0,0.2289 0.0295,0.4566 0.0765,0.6806 0.0235,0.1121 0.0461,0.2256 0.0422,0.34 -0.002,0.057 -0.0107,0.1145 -0.0297,0.1684 -0.019,0.054 -0.0486,0.1047 -0.089,0.1452 -0.0405,0.041 -0.0912,0.07 -0.14516,0.089 -0.054,0.019 -0.11123,0.028 -0.16843,0.03 -0.11441,0 -0.22792,-0.019 -0.33995,-0.042 -0.22406,-0.047 -0.45169,-0.076 -0.68063,-0.076 l -0.66708,0 c -0.81936,0 -1.63618,0.076 -2.45488,0.1088 -0.40935,0.016 -0.8249,0.01 -1.21987,-0.1017 -0.39498,-0.1088 -0.7734,-0.3295 -0.99482,-0.6742 -0.14448,-0.2249 -0.21472,-0.4896 -0.25729,-0.7535 -0.0426,-0.2639 -0.0596,-0.5316 -0.10862,-0.7944 -0.049,-0.2628 -0.13281,-0.525 -0.29347,-0.7386 -0.0803,-0.1069 -0.17948,-0.2003 -0.29463,-0.2682 -0.11516,-0.068 -0.24656,-0.1096 -0.38016,-0.1136 -0.11234,-0 -0.22358,0.019 -0.3353,0.032 -0.11172,0.012 -0.22871,0.013 -0.33178,-0.032 -0.0832,-0.036 -0.15256,-0.1009 -0.20002,-0.1781 -0.0474,-0.077 -0.0735,-0.1667 -0.0817,-0.257 -0.0163,-0.1806 0.0376,-0.3603 0.10584,-0.5283 0.0682,-0.1681 0.15153,-0.3309 0.19899,-0.5059 0.0237,-0.088 0.0383,-0.178 0.0366,-0.2687 -0.002,-0.091 -0.0201,-0.1816 -0.0597,-0.2632 -0.0566,-0.1166 -0.15579,-0.2106 -0.27204,-0.2679 -0.11626,-0.057 -0.24874,-0.079 -0.37799,-0.069 -0.25852,0.019 -0.49531,0.1595 -0.68413,0.3371 -0.26387,0.2482 -0.45186,0.5768 -0.52839,0.9309 -0.0765,0.3541 -0.0407,0.7321 0.1045,1.064 0.14518,0.3319 0.3995,0.6157 0.71546,0.7929 0.31597,0.1772 0.69199,0.2462 1.04972,0.1891 0.35773,-0.057 0.69458,-0.2407 0.93369,-0.5129 0.2391,-0.2721 0.37802,-0.6312 0.38062,-0.9934 0.003,-0.3623 -0.13193,-0.7245 -0.37315,-0.9948 -0.24122,-0.2703 -0.58731,-0.4453 -0.94829,-0.4758 -0.33892,-0.029 -0.6744,0.065 -1.01027,0.1188 -0.16794,0.027 -0.33855,0.044 -0.50807,0.03 -0.16952,-0.014 -0.33864,-0.059 -0.4829,-0.1489 -0.13382,-0.084 -0.24162,-0.2022 -0.34369,-0.3225 -0.10207,-0.1203 -0.20123,-0.2448 -0.3234,-0.3446 -0.17285,-0.1412 -0.38803,-0.228 -0.6096,-0.2549 -0.22157,-0.027 -0.44899,0.01 -0.65786,0.084 -0.41774,0.1573 -0.75078,0.4964 -0.96305,0.8892 -0.21227,0.3927 -0.31282,0.8369 -0.36228,1.2806 -0.0495,0.4436 -0.0501,0.8911 -0.0755,1.3368 -0.0204,0.3587 -0.0574,0.7188 -0.15611,1.0642 -0.0988,0.3455 -0.26234,0.6776 -0.51098,0.937 -0.25885,0.27 -0.6056,0.4529 -0.97341,0.5209 -0.36781,0.068 -0.75492,0.022 -1.0992,-0.1244 -0.34428,-0.1462 -0.64497,-0.3911 -0.86354,-0.6947 -0.21857,-0.3035 -0.35514,-0.6645 -0.39926,-1.0359 -0.0263,-0.2212 -0.0204,-0.4453 0,-0.6671 0.0205,-0.2232 0.0557,-0.4452 0.0681,-0.669 0.0124,-0.2239 0.001,-0.4521 -0.0681,-0.6652 -0.12578,-0.3855 -0.44825,-0.6986 -0.83409,-0.8233 -0.38585,-0.1248 -0.82543,-0.062 -1.16715,0.1562 -0.37119,0.2372 -0.61503,0.6365 -0.75074,1.0555 -0.1357,0.4191 -0.17447,0.8623 -0.21583,1.3008 -0.0414,0.4386 -0.0873,0.8819 -0.23624,1.2965 -0.14889,0.4145 -0.413,0.8036 -0.79844,1.0168 -0.20314,0.1124 -0.43497,0.1724 -0.66712,0.1725 -0.23214,10e-5 -0.46409,-0.06 -0.66704,-0.1725 -0.24711,-0.1372 -0.44673,-0.3486 -0.6059,-0.5822 -0.15917,-0.2336 -0.28078,-0.4903 -0.40104,-0.7461 -0.12026,-0.2558 -0.24049,-0.513 -0.39725,-0.7483 -0.15675,-0.2352 -0.35283,-0.4494 -0.59706,-0.5917 -0.30644,-0.1785 -0.66672,-0.2332 -1.0155,-0.2975 -0.34877,-0.064 -0.70888,-0.1479 -0.98574,-0.3696 -0.2513,-0.2012 -0.40704,-0.4945 -0.59081,-0.7588 -0.0919,-0.1321 -0.19297,-0.2594 -0.31579,-0.3634 -0.12283,-0.1041 -0.269,-0.1844 -0.42757,-0.212 -0.10969,-0.019 -0.222,-0.014 -0.33322,-0.01 -0.11121,0.01 -0.22252,0.01 -0.33386,0.01 l -1.33416,0 c -0.27335,0 -0.55332,-7e-4 -0.81061,0.092 -0.12864,0.046 -0.25012,0.1164 -0.34533,0.2144 -0.0952,0.098 -0.16296,0.2253 -0.17822,0.3611 -0.0125,0.1116 0.01,0.2237 0.0243,0.3351 0.0143,0.1114 0.0198,0.2287 -0.0243,0.332 -0.0243,0.057 -0.0629,0.107 -0.10999,0.147 -0.0471,0.04 -0.10251,0.07 -0.16111,0.089 -0.11718,0.039 -0.24502,0.037 -0.36603,0.012 -0.24201,-0.049 -0.4588,-0.1831 -0.69704,-0.2481 -0.21707,-0.059 -0.45001,-0.059 -0.66708,0 -0.29285,0.08 -0.55453,0.269 -0.72231,0.522 -0.16777,0.253 -0.24018,0.5676 -0.19987,0.8685 0.0403,0.3009 0.19301,0.5854 0.42146,0.7852 0.22846,0.1999 0.5307,0.3135 0.83426,0.3135 0.30356,0 0.6058,-0.1136 0.83426,-0.3135 0.22845,-0.1998 0.38114,-0.4843 0.42146,-0.7852 0.0403,-0.3009 -0.0321,-0.6155 -0.19987,-0.8685 -0.16778,-0.253 -0.42946,-0.4421 -0.72231,-0.522"
       id="path3215"
       inkscape:path-effect="#path-effect3217"
       inkscape:original-d="m 701.10306,1137.7487 c 0,-2.0013 0,-4.0025 0,-6.0038 0,-0.2223 0,-0.4447 0,-0.6671 0,-0.2223 0.21095,-0.5967 0,-0.667 -0.63285,-0.211 -1.33417,0 -2.00125,0 -0.88944,0 -1.8425,-0.3304 -2.66833,0 -0.46165,0.1846 -0.3155,0.9825 -0.66708,1.3341 -0.35158,0.3516 -1.05836,0.2534 -1.33416,0.6671 -0.24669,0.37 0.14063,0.9123 0,1.3342 -0.0994,0.2983 -0.59082,0.362 -0.66708,0.6671 -0.1618,0.6471 0,1.3341 0,2.0012 0,0.6671 0,1.3342 0,2.0012 0,0.4448 0.31446,1.0197 0,1.3342 -0.31447,0.3145 -0.88945,0 -1.33417,0 -0.22236,0 -0.44472,0 -0.66708,0 -1.2294,0 -3.67493,0.1618 -4.66957,-0.6671 -0.76394,-0.6366 -0.73751,-1.8728 -1.33417,-2.6683 -0.13341,-0.1779 -0.59676,0.2109 -0.66708,0 -0.21095,-0.6328 0.37003,-1.4462 0,-2.0012 -0.24669,-0.3701 -1.33416,0.4447 -1.33416,0 0,-0.4448 1.77888,0 1.33416,0 -0.66708,0 -1.35408,0.1617 -2.00124,0 -0.30508,-0.076 -0.36876,-0.7666 -0.66709,-0.6671 -0.70677,0.2356 -2.50774,2.9339 -2.66832,3.3354 -0.3338,0.8345 0.55049,1.5954 -0.66709,2.0012 -1.27308,0.4244 -2.51958,-0.5183 -3.33541,-1.3341 -0.15723,-0.1573 0,-0.4448 0,-0.6671 0,-0.4447 0.14064,-0.9123 0,-1.3342 -0.16983,-0.5095 -1.50055,-1.3346 -2.00124,-0.6671 -2.09066,2.7876 0.91631,2.4814 -2.00125,4.6696 -0.35577,0.2668 -0.88944,0 -1.33416,0 -1.98207,0 0.86597,0.1989 -2.00125,-2.6683 -0.49721,-0.4972 -1.39828,-0.3053 -2.00124,-0.6671 -0.53931,-0.3236 -0.81086,-0.9853 -1.33417,-1.3342 -0.18501,-0.1233 -0.44472,0 -0.66708,0 -0.44472,0 -0.88944,0 -1.33416,0 -0.69011,0 -0.92201,-0.1572 -1.33416,0.6671 -0.0995,0.1989 0.19888,0.5677 0,0.6671 -0.39778,0.1989 -0.88945,0 -1.33417,0 -0.22236,0 -0.66708,0.2224 -0.66708,0 0,-0.2224 0.44472,0 0.66708,0"
       inkscape:connector-curvature="0" />
    <path
       style="fill:none;stroke:#004da9;stroke-width:1px;stroke-linecap:butt;stroke-linejoin:miter;stroke-opacity:1;color:#000000;stroke-miterlimit:4;stroke-dasharray:none;stroke-dashoffset:0;marker:none;visibility:visible;display:inline;overflow:visible;enable-background:accumulate"
       d="m 633.72779,1009.0019 c -0.81217,-0.4714 -1.49662,-1.1604 -1.96252,-1.9757 -0.46589,-0.8154 -0.71205,-1.7549 -0.70581,-2.6939 0.001,-0.2225 0.0168,-0.4453 0,-0.6671 -0.0497,-0.6567 -0.3775,-1.2619 -0.76943,-1.7912 -0.39193,-0.5293 -0.85378,-1.0049 -1.23182,-1.5442 -0.0918,-0.1309 -0.1788,-0.2659 -0.2846,-0.38574 -0.10579,-0.11987 -0.23269,-0.22542 -0.38248,-0.28135 -0.20959,-0.0782 -0.44161,-0.0563 -0.6643,-0.0348 -0.22268,0.0215 -0.44614,0.0348 -0.66986,0.0348 l -0.66708,0 c -0.66753,0 -1.33842,-0.0791 -2.00125,0 -0.67502,0.0806 -1.32275,0.38699 -1.8059,0.86519 -0.48316,0.4782 -0.79709,1.1264 -0.86243,1.8031 -0.0214,0.2216 -0.0169,0.4451 0,0.6671 0.034,0.446 0.11731,0.9026 0,1.3342 -0.10587,0.3896 -0.36485,0.7173 -0.62863,1.0229 -0.26378,0.3056 -0.54347,0.6085 -0.70553,0.9783 -0.13653,0.3115 -0.1824,0.6575 -0.16956,0.9973 0.0128,0.3399 0.0826,0.6752 0.16956,1.004 0.0884,0.3345 0.19531,0.6669 0.22625,1.0114 0.0309,0.3446 -0.0219,0.7106 -0.22625,0.9898 -0.10381,0.1418 -0.24358,0.2562 -0.40056,0.3352 -0.15698,0.079 -0.33084,0.123 -0.50624,0.134 -0.3508,0.022 -0.70167,-0.088 -1.00317,-0.2688 -0.603,-0.3613 -1.00027,-0.9747 -1.42544,-1.5345 -0.67341,-0.8867 -1.46857,-1.6907 -2.00125,-2.6684 -0.44372,-0.8144 -0.69216,-1.7412 -0.66708,-2.6683 0.009,-0.3351 0.0532,-0.6682 0.073,-1.0028 0.0198,-0.3346 0.0146,-0.6749 -0.073,-0.9984 -0.13101,-0.4841 -0.43606,-0.8987 -0.71963,-1.3123 -0.28356,-0.41363 -0.55857,-0.85771 -0.61453,-1.35607 -0.0248,-0.22118 -0.005,-0.44457 0,-0.66708 0.0279,-1.19198 -0.37515,-2.38949 -1.11811,-3.32203 -0.74295,-0.93253 -1.82012,-1.59297 -2.98819,-1.83212 -1.16808,-0.23915 -2.41813,-0.0552 -3.4678,0.51032 -1.04966,0.56551 -1.89091,1.50826 -2.33372,2.61529 -0.44281,1.10703 -0.48379,2.36988 -0.11369,3.5033 0.37009,1.13339 1.14844,2.12869 2.15923,2.76109 1.01078,0.6324 2.24628,0.897 3.4274,0.7341 1.18113,-0.1629 2.29886,-0.7521 3.10071,-1.6345 l 0,2.6683 c -0.21097,-0.087 -0.45611,-0.087 -0.66708,0 -0.17561,0.072 -0.32504,0.2014 -0.43429,0.3567 -0.10926,0.1553 -0.17956,0.3359 -0.21898,0.5216 -0.0788,0.3715 -0.0363,0.7566 0.005,1.1341 0.0409,0.3776 0.0794,0.7637 -0.007,1.1335 -0.0432,0.1849 -0.11814,0.3639 -0.23208,0.5157 -0.11393,0.1519 -0.26808,0.2759 -0.44647,0.3409 -0.20348,0.074 -0.43126,0.069 -0.63848,0.01 -0.20721,-0.063 -0.39485,-0.181 -0.55717,-0.3243 -0.32465,-0.2868 -0.5477,-0.6677 -0.8056,-1.0157 -0.24035,-0.3243 -0.51365,-0.6229 -0.75859,-0.9438 -0.24493,-0.3208 -0.46381,-0.6695 -0.57557,-1.0574 -0.0511,-0.1774 -0.0817,-0.3667 -0.18796,-0.5177 -0.0531,-0.075 -0.12567,-0.1393 -0.21245,-0.1708 -0.0434,-0.016 -0.09,-0.023 -0.13599,-0.02 -0.0461,0 -0.0915,0.017 -0.13068,0.041 -0.0495,0.031 -0.0878,0.078 -0.11268,0.1307 -0.0249,0.053 -0.0368,0.1111 -0.0396,0.1693 -0.006,0.1165 0.0233,0.2317 0.0535,0.3444 0.0302,0.1127 0.0614,0.2254 0.0787,0.3408 0.0173,0.1153 0.0201,0.2323 0.0201,0.349 l 0,2.0012 c 0,0.8868 0.0898,1.7742 0.0394,2.6596 -0.0252,0.4427 -0.10608,0.8924 -0.32636,1.2772 -0.11014,0.1925 -0.25544,0.3663 -0.43421,0.4975 -0.17877,0.1311 -0.39189,0.2183 -0.61295,0.2353 -0.28618,0.022 -0.57261,-0.074 -0.81503,-0.2279 -0.24241,-0.1537 -0.44515,-0.3623 -0.6309,-0.5811 -0.18575,-0.2188 -0.35707,-0.4499 -0.55094,-0.6615 -0.19387,-0.2117 -0.41323,-0.4055 -0.67145,-0.5308 -0.39638,-0.1924 -0.85493,-0.2108 -1.26794,-0.3643 -0.2065,-0.077 -0.40416,-0.1902 -0.54695,-0.3579 -0.0714,-0.084 -0.12822,-0.1808 -0.1619,-0.2856 -0.0337,-0.1049 -0.0438,-0.2179 -0.0245,-0.3263 0.0209,-0.1172 0.0752,-0.2263 0.0967,-0.3434 0.0108,-0.059 0.0131,-0.1195 -0.001,-0.1772 -0.0144,-0.058 -0.0467,-0.1122 -0.0954,-0.1465 -0.0463,-0.033 -0.10414,-0.045 -0.16072,-0.046 -0.0566,-0 -0.11286,0.01 -0.1687,0.017 -0.11168,0.018 -0.22447,0.03 -0.33766,0.03 l -1.33417,0 -2.66832,0 c -0.22459,0 -0.44873,0.017 -0.67164,0.044 -0.11145,0.014 -0.22339,0.027 -0.33566,0.025 -0.11228,-0 -0.22608,-0.02 -0.32687,-0.069 -0.14222,-0.07 -0.24726,-0.1963 -0.34361,-0.322 -0.0964,-0.1258 -0.19147,-0.2575 -0.32347,-0.3451 -0.14123,-0.094 -0.31428,-0.1295 -0.48375,-0.1334 -0.16948,-0 -0.33815,0.021 -0.5056,0.048 -0.3349,0.053 -0.67285,0.086 -1.01189,0.086 l -3.33541,0"
       id="path3223"
       inkscape:path-effect="#path-effect3225"
       inkscape:original-d="m 633.72779,1009.0019 c -1.21775,-4.871 0.31239,-0.6953 -2.66833,-4.6696 -0.13342,-0.1779 0.0703,-0.4561 0,-0.6671 -0.31041,-0.9312 -1.54454,-2.7265 -2.00125,-3.3354 -0.18868,-0.2516 -0.36875,-0.56764 -0.66708,-0.66709 -0.4219,-0.14063 -0.88944,0 -1.33416,0 -0.22236,0 -0.44472,0 -0.66708,0 -0.66709,0 -1.42206,-0.33096 -2.00125,0 -1.09213,0.62409 -1.88255,1.68609 -2.66833,2.66829 -0.13891,0.1737 0,0.4448 0,0.6671 0,0.4447 0.16517,0.9213 0,1.3342 -0.29775,0.7444 -1.08063,1.2406 -1.33416,2.0012 -0.21095,0.6329 0,1.3342 0,2.0013 0,0.6671 0.4717,1.5295 0,2.0012 -1.31509,1.3151 -2.76943,-0.7682 -3.33541,-1.3341 -0.86417,-0.8642 -1.43552,-1.3483 -2.00125,-2.6684 -0.36115,-0.8427 -0.53742,-1.7607 -0.66708,-2.6683 -0.0943,-0.6604 0.18326,-1.3598 0,-2.0012 -0.27319,-0.9562 -0.96484,-1.74507 -1.33416,-2.66837 -0.0826,-0.20645 0,-0.88944 0,-0.66708 0,3.88965 0.24668,-2.19757 -1.33417,3.33545 0,0.8894 0,1.7788 0,2.6683 -0.22236,0 -0.59676,-0.211 -0.66708,0 -0.77311,2.3193 1.2992,2.0275 -1.33416,4.0025 -1.36985,1.0274 -1.65128,-0.7509 -2.00125,-1.3342 -0.41249,-0.6875 -0.85312,-1.3598 -1.33416,-2.0012 -0.18868,-0.2516 -0.44472,-0.8895 -0.66708,-0.6671 -0.31447,0.3145 0,0.8894 0,1.3342 0,0.667 0,1.3341 0,2.0012 0,0.988 0.29833,4.3975 -1.33417,4.6696 -1.09667,0.1827 -1.76361,-1.3551 -2.66832,-2.0013 -0.6524,-0.466 -1.43434,-0.7672 -2.00125,-1.3341 -0.15723,-0.1573 0.15723,-0.5099 0,-0.6671 -0.15723,-0.1573 -0.44472,0 -0.66708,0 -0.44472,0 -0.88944,0 -1.33417,0 -0.88944,0 -1.77888,0 -2.66832,0 -0.44472,0 -0.91227,0.1406 -1.33417,0 -0.29832,-0.099 -0.362,-0.5908 -0.66708,-0.6671 -0.64716,-0.1618 -1.33416,0 -2.00124,0 -1.11181,0 -2.22361,0 -3.33541,0"
       inkscape:connector-curvature="0" />
    <path
       style="fill:none;stroke:#004da9;stroke-width:1px;stroke-linecap:butt;stroke-linejoin:miter;stroke-opacity:1;color:#000000;stroke-miterlimit:4;stroke-dasharray:none;stroke-dashoffset:0;marker:none;visibility:visible;display:inline;overflow:visible;enable-background:accumulate"
       d="m 615.04949,1104.3946 c 0.68698,0.1354 1.43061,-0.052 1.97148,-0.4966 0.54087,-0.4446 0.86844,-1.138 0.86844,-1.8382 0,-0.7002 -0.32757,-1.3936 -0.86844,-1.8382 -0.54087,-0.4447 -1.2845,-0.632 -1.97148,-0.4966 -0.22678,0.045 -0.44711,0.1224 -0.67662,0.1499 -0.11476,0.014 -0.23181,0.015 -0.34521,-0.01 -0.1134,-0.022 -0.22326,-0.069 -0.31233,-0.1422 -0.0977,-0.081 -0.16707,-0.1914 -0.21628,-0.3082 -0.0492,-0.1167 -0.0796,-0.2404 -0.11039,-0.3633 -0.0308,-0.123 -0.0626,-0.2464 -0.11433,-0.3621 -0.0518,-0.1156 -0.12497,-0.2242 -0.22608,-0.3006 -0.0914,-0.069 -0.20251,-0.1093 -0.31579,-0.1263 -0.11328,-0.017 -0.22898,-0.012 -0.34245,0 -0.22695,0.032 -0.44755,0.104 -0.67593,0.1223 -0.22178,0.018 -0.44519,-0.016 -0.66708,0 -0.25252,0.019 -0.49754,0.1023 -0.72041,0.2225 -0.22288,0.1202 -0.42474,0.2761 -0.61375,0.4446 -0.83307,0.7426 -1.41475,1.7188 -2.00125,2.6683 -0.52455,0.8492 -1.0705,1.7057 -1.33416,2.6684 -0.17887,0.6531 -0.21933,1.3606 0,2.0012 0.078,0.2279 0.18849,0.4475 0.22334,0.6859 0.0174,0.1192 0.0151,0.2426 -0.0199,0.3579 -0.035,0.1152 -0.10436,0.222 -0.20348,0.2904 -0.0959,0.066 -0.21526,0.094 -0.33167,0.089 -0.11641,-0 -0.23014,-0.039 -0.33541,-0.089 -0.35029,-0.166 -0.60453,-0.4922 -0.75932,-0.8476 -0.15479,-0.3554 -0.22088,-0.7421 -0.28146,-1.1249 -0.0606,-0.3829 -0.11788,-0.77 -0.25688,-1.1319 -0.139,-0.3618 -0.36925,-0.7019 -0.70359,-0.8981 -0.21726,-0.1275 -0.46596,-0.188 -0.70394,-0.2706 -0.23798,-0.082 -0.47773,-0.196 -0.63022,-0.3965 -0.14108,-0.1855 -0.19151,-0.4285 -0.17709,-0.6611 0.0144,-0.2326 0.0889,-0.4574 0.17709,-0.6731 0.0452,-0.1105 0.0947,-0.2216 0.10775,-0.3402 0.007,-0.059 0.004,-0.1202 -0.0135,-0.1774 -0.0171,-0.057 -0.0488,-0.1106 -0.0942,-0.1494 -0.0439,-0.037 -0.0991,-0.06 -0.15595,-0.07 -0.0568,-0.01 -0.11523,-0.01 -0.17236,-10e-5 -0.11427,0.016 -0.2243,0.056 -0.33877,0.07 -0.22605,0.029 -0.45112,-0.042 -0.67508,-0.084 -0.11199,-0.021 -0.22624,-0.035 -0.3398,-0.026 -0.11357,0.01 -0.22706,0.043 -0.31929,0.1095 -0.0978,0.071 -0.16749,0.1769 -0.20461,0.2919 -0.0371,0.115 -0.043,0.2386 -0.0282,0.3585 0.0295,0.2398 0.13806,0.4614 0.23282,0.6837 0.20529,0.4815 0.35339,1.0081 0.27403,1.5255 -0.0397,0.2587 -0.13759,0.5107 -0.29891,0.7168 -0.16132,0.2062 -0.38787,0.3642 -0.6422,0.4261 -0.21665,0.053 -0.44334,0.038 -0.66584,0.023 -0.2225,-0.014 -0.44535,-0.023 -0.66832,-0.023 l -0.66709,0 c -0.22365,0 -0.44704,0.013 -0.66971,0.034 -0.22267,0.021 -0.45417,0.042 -0.66445,-0.034 -0.1508,-0.055 -0.27996,-0.1583 -0.38651,-0.2782 -0.10656,-0.1199 -0.1925,-0.2563 -0.2782,-0.3919 -0.0857,-0.1355 -0.17223,-0.2717 -0.27975,-0.3907 -0.10751,-0.119 -0.23804,-0.2212 -0.3897,-0.2734 -0.12596,-0.043 -0.26309,-0.051 -0.39448,-0.029 -0.1314,0.022 -0.25717,0.072 -0.3714,0.1411 -0.22846,0.137 -0.40795,0.342 -0.56829,0.5548 -0.0958,0.1271 -0.18638,0.2584 -0.29246,0.377 -0.10608,0.1186 -0.22937,0.2251 -0.37462,0.2901 -0.20541,0.092 -0.43953,0.094 -0.66336,0.071 -0.22383,-0.023 -0.44579,-0.07 -0.6708,-0.071 -0.22287,-0 -0.44815,0.042 -0.66708,0 -0.15846,-0.03 -0.30658,-0.1043 -0.43535,-0.2015 -0.12877,-0.097 -0.23907,-0.217 -0.33786,-0.3445 -0.19758,-0.2551 -0.35151,-0.5428 -0.56096,-0.7882 -0.26764,-0.3136 -0.62302,-0.555 -0.83292,-0.9098 -0.10496,-0.1775 -0.16994,-0.3842 -0.15017,-0.5894 0.01,-0.1026 0.0411,-0.2036 0.0947,-0.2916 0.0536,-0.088 0.12999,-0.1627 0.22132,-0.2105 0.0996,-0.052 0.2137,-0.071 0.3261,-0.073 0.1124,-0 0.22443,0.012 0.33591,0.026 0.22296,0.029 0.44731,0.047 0.67215,0.047 l 0.66709,0"
       id="path3227"
       inkscape:path-effect="#path-effect3229"
       inkscape:original-d="m 615.04949,1104.3946 c -1.1512,-1.208 0.86341,-3.3745 0,-4.6696 -0.24668,-0.37 -0.96413,0.2467 -1.33416,0 -0.41371,-0.2758 -0.25338,-1.0584 -0.66708,-1.3342 -0.37003,-0.2467 -0.88944,0 -1.33417,0 -0.22236,0 -0.45613,-0.07 -0.66708,0 -0.4717,0.1573 -0.92045,0.3913 -1.33416,0.6671 -0.71775,0.4785 -1.80881,2.3316 -2.00125,2.6683 -0.49337,0.8634 -1.06097,1.7122 -1.33416,2.6684 -0.18326,0.6414 0,1.3341 0,2.0012 0,0.4447 0.19888,0.9364 0,1.3342 -0.0994,0.1989 -0.50985,0.1572 -0.66708,0 -4.38619,-4.3862 1.25408,0.3379 -2.00125,-4.0025 -0.29833,-0.3978 -1.05836,-0.2534 -1.33416,-0.6671 -0.24669,-0.37 0,-0.8894 0,-1.3342 0,-0.2223 0.15723,-0.5098 0,-0.667 -0.15723,-0.1573 -0.44472,0 -0.66708,0 -0.44473,0 -1.0197,-0.3145 -1.33417,0 -0.31446,0.3144 0,0.8894 0,1.3341 0,0.7053 0.4717,2.2888 -0.66708,2.6684 -0.4219,0.1406 -0.88944,0 -1.33416,0 -0.22236,0 -0.44472,0 -0.66709,0 -0.44472,0 -0.96413,0.2466 -1.33416,0 -0.92074,-0.6139 -0.1009,-1.7453 -1.33416,-1.3342 -0.4717,0.1572 -0.92046,0.3913 -1.33417,0.6671 -0.26165,0.1744 -0.36875,0.5676 -0.66708,0.6671 -0.4219,0.1406 -0.88944,0 -1.33416,0 -0.22236,0 -0.48207,0.1233 -0.66708,0 -0.52331,-0.3489 -0.88945,-0.8895 -1.33417,-1.3342 -0.39867,-0.3987 -1.49139,-1.1769 -0.66708,-2.0013 0.31447,-0.3144 0.88944,0 1.33416,0 0.22236,0 0.44473,0 0.66709,0"
       inkscape:connector-curvature="0" />
  </g>
  <g
     inkscape:label="Layer#2"
     id="layer4"
     inkscape:groupmode="layer">
    <path
       style="fill:none;stroke:#dfad85;stroke-width:1px;stroke-linecap:butt;stroke-linejoin:miter;stroke-opacity:1"
       d="m 17.924528,701.65464 0.235849,6.36792"
       id="path7136"
       inkscape:connector-curvature="0" />
    <path
       style="fill:none;stroke:#dfad85;stroke-width:1px;stroke-linecap:butt;stroke-linejoin:miter;stroke-opacity:1"
       d="m 3.5377359,700.4754 6.1320755,5.89622"
       id="path7138"
       inkscape:connector-curvature="0" />
    <path
       style="fill:none;stroke:#dfad85;stroke-width:1px;stroke-linecap:butt;stroke-linejoin:miter;stroke-opacity:1"
       d="m -3.0660373,705.66407 c 2.14703369,1.82613 13.2926813,12.08846 6.132075,5.18868"
       id="path7140"
       inkscape:connector-curvature="0"
       sodipodi:nodetypes="cc" />
    <path
       style="fill:none;stroke:#dfad85;stroke-width:1px;stroke-linecap:butt;stroke-linejoin:miter;stroke-opacity:1"
       d="m -9.4339615,712.97539 6.6037727,5.66038"
       id="path7142"
       inkscape:connector-curvature="0" />
    <path
       style="fill:none;stroke:#dfad85;stroke-width:1px;stroke-linecap:butt;stroke-linejoin:miter;stroke-opacity:1"
       d="m 482.31132,589.50841 -0.23585,6.36792"
       id="path7136-2"
       inkscape:connector-curvature="0" />
    <path
       style="fill:none;stroke:#dfad85;stroke-width:1px;stroke-linecap:butt;stroke-linejoin:miter;stroke-opacity:1"
       d="m 495.04716,589.74426 -6.13207,5.89622"
       id="path7138-1"
       inkscape:connector-curvature="0" />
    <path
       style="fill:none;stroke:#dfad85;stroke-width:1px;stroke-linecap:butt;stroke-linejoin:miter;stroke-opacity:1"
       d="m 501.41509,595.87633 -6.13208,5.18868"
       id="path7140-4"
       inkscape:connector-curvature="0" />
    <path
       style="fill:none;stroke:#dfad85;stroke-width:1px;stroke-linecap:butt;stroke-linejoin:miter;stroke-opacity:1"
       d="m 509.66981,600.59331 -6.60378,5.66038"
       id="path7142-9"
       inkscape:connector-curvature="0" />
  </g>
</svg>
