<?xml version="1.0" encoding="UTF-8" standalone="no"?>
<!-- Created with Inkscape (http://www.inkscape.org/) -->

<svg
   xmlns:dc="http://purl.org/dc/elements/1.1/"
   xmlns:cc="http://creativecommons.org/ns#"
   xmlns:rdf="http://www.w3.org/1999/02/22-rdf-syntax-ns#"
   xmlns:svg="http://www.w3.org/2000/svg"
   xmlns="http://www.w3.org/2000/svg"
   version="1.1"
   width="32"
   height="32"
   id="svg2">
  <defs
     id="defs4">
    <filter
       color-interpolation-filters="sRGB"
       id="filter3839">
      <feGaussianBlur
         result="result91"
         stdDeviation="5"
         id="feGaussianBlur3841" />
      <feComposite
         in2="result91"
         operator="over"
         in="SourceGraphic"
         id="feComposite3843" />
    </filter>
    <filter
       x="-0.38989547"
       y="-0.57394534"
       width="1.779791"
       height="2.1478908"
       color-interpolation-filters="sRGB"
       id="filter3869">
      <feGaussianBlur
         id="feGaussianBlur3871"
         stdDeviation="4.2907112" />
    </filter>
  </defs>
  <metadata
     id="metadata7">
    <rdf:RDF>
      <cc:Work
         rdf:about="">
        <dc:format>image/svg+xml</dc:format>
        <dc:type
           rdf:resource="http://purl.org/dc/dcmitype/StillImage" />
        <dc:title></dc:title>
      </cc:Work>
    </rdf:RDF>
  </metadata>
  <g
     transform="translate(0,-1020.3622)"
     id="layer1"
     style="display:none">
    <rect
       width="32.142857"
       height="31.875"
       x="0"
       y="0.080357045"
       transform="translate(0,1020.3622)"
       id="rect3029"
       style="color:#000000;fill:#000000;fill-opacity:1;fill-rule:nonzero;stroke:none;stroke-width:1px;marker:none;visibility:visible;display:inline;overflow:visible;enable-background:accumulate" />
  </g>
  <g
     id="layer2"
     style="display:inline">
    <path
       d="m 10.174344,7.7857138 0,5.0104872 -3.9738821,0 0,-3.7947072 -3.1628868,0 0,16.7261842 3.1628868,0 0,-2.578927 15.4089341,0 0,-2.799978 7.839634,0 0,-3.573656 -7.839634,0 0,-3.978916 -8.515464,0 0,-5.0104872 -2.919588,0 z"
       id="rect2993"
       style="opacity:0.67699118;color:#000000;fill:#ffffff;fill-opacity:1;fill-rule:nonzero;stroke:none;stroke-width:1px;marker:none;visibility:visible;display:inline;overflow:visible;filter:url(#filter3869);enable-background:accumulate" />
  </g>
  <g
     id="layer3">
    <path
       d="m 10.136399,7.8950894 0,5.0104876 -3.9738829,0 0,-3.7947076 -3.162886,0 0,16.7261846 3.162886,0 0,-2.578927 15.4089349,0 0,-2.799978 7.839634,0 0,-3.573656 -7.839634,0 0,-3.978916 -8.515464,0 0,-5.0104876 -2.919588,0 z"
       id="rect2993-1"
       style="color:#000000;fill:#fff2f2;fill-opacity:1;fill-rule:nonzero;stroke:none;stroke-width:1px;marker:none;visibility:visible;display:inline;overflow:visible;enable-background:accumulate" />
  </g>
</svg>
