<?xml version="1.0" encoding="UTF-8" standalone="no"?>
<!-- Created with Inkscape (http://www.inkscape.org/) -->

<svg
   xmlns:dc="http://purl.org/dc/elements/1.1/"
   xmlns:cc="http://creativecommons.org/ns#"
   xmlns:rdf="http://www.w3.org/1999/02/22-rdf-syntax-ns#"
   xmlns:svg="http://www.w3.org/2000/svg"
   xmlns="http://www.w3.org/2000/svg"
   xmlns:xlink="http://www.w3.org/1999/xlink"
   xmlns:sodipodi="http://sodipodi.sourceforge.net/DTD/sodipodi-0.dtd"
   xmlns:inkscape="http://www.inkscape.org/namespaces/inkscape"
   sodipodi:docname="title.svg"
   inkscape:version="0.48.4 r9939"
   version="1.1"
   id="svg2"
   height="1052.3622047"
   width="744.09448819">
  <sodipodi:namedview
     id="base"
     pagecolor="#ffffff"
     bordercolor="#666666"
     borderopacity="1.0"
     inkscape:pageopacity="0.0"
     inkscape:pageshadow="2"
     inkscape:zoom="1.06"
     inkscape:cx="726.56009"
     inkscape:cy="401.15663"
     inkscape:document-units="px"
     inkscape:current-layer="layer4"
     showgrid="false"
     inkscape:window-width="2498"
     inkscape:window-height="1417"
     inkscape:window-x="54"
     inkscape:window-y="-8"
     inkscape:window-maximized="1" />
  <defs
     id="defs4">
    <linearGradient
       id="linearGradient5256">
      <stop
         style="stop-color:#000000;stop-opacity:1;"
         offset="0"
         id="stop5258" />
      <stop
         id="stop5266"
         offset="0.5"
         style="stop-color:#000000;stop-opacity:0.49803922;" />
      <stop
         style="stop-color:#000000;stop-opacity:0;"
         offset="1"
         id="stop5260" />
    </linearGradient>
    <radialGradient
       cx="14.994452"
       cy="14.973981"
       r="14.994452"
       fx="14.994452"
       fy="14.973981"
       id="radialGradient3817"
       xlink:href="#linearGradient3809"
       gradientUnits="userSpaceOnUse"
       gradientTransform="matrix(1,0,0,0.99368415,0,0.09457343)" />
    <linearGradient
       id="linearGradient3809">
      <stop
         id="stop3811"
         style="stop-color:#ffffff;stop-opacity:1"
         offset="0" />
      <stop
         id="stop3813"
         style="stop-color:#d1edf1;stop-opacity:0.78431374"
         offset="1" />
    </linearGradient>
    <radialGradient
       inkscape:collect="always"
       xlink:href="#linearGradient3809"
       id="radialGradient6148"
       gradientUnits="userSpaceOnUse"
       gradientTransform="matrix(1,0,0,0.99368415,0,0.09457343)"
       cx="14.994452"
       cy="14.973981"
       fx="14.994452"
       fy="14.973981"
       r="14.994452" />
  </defs>
  <metadata
     id="metadata7">
    <rdf:RDF>
      <cc:Work
         rdf:about="">
        <dc:format>image/svg+xml</dc:format>
        <dc:type
           rdf:resource="http://purl.org/dc/dcmitype/StillImage" />
      </cc:Work>
    </rdf:RDF>
  </metadata>
  <g
     inkscape:label="Layer 1"
     inkscape:groupmode="layer"
     id="layer1" />
  <g
     inkscape:groupmode="layer"
     id="layer2"
     inkscape:label="Layer">
    <path
       style="fill:#fed8c1;stroke:#dfad85;stroke-width:3;stroke-linecap:butt;stroke-linejoin:miter;stroke-opacity:1;fill-opacity:1;stroke-miterlimit:4;stroke-dasharray:none"
       d="m 255.56859,606.37983 -13.13198,40.40611 -1.51523,62.12438 59.599,12.6269 18.18275,-56.06346 -12.12183,-19.1929 -9.09138,-46.46702 z"
       id="path5819"
       inkscape:connector-curvature="0" />
    <path
       style="fill:#fed8c1;stroke:#dfad85;stroke-width:3;stroke-linecap:butt;stroke-linejoin:miter;stroke-opacity:1;fill-opacity:1;stroke-miterlimit:4;stroke-dasharray:none"
       d="M 268.5625 408.0625 L 211.4375 460.9375 L 213.46875 480.5625 L 201.0625 471.28125 L 208.21875 529.5 L 217.53125 520.1875 L 227.15625 613.78125 C 227.15625 613.78125 337.14732 608.0625 335.71875 598.0625 C 335.04637 593.3559 338.19059 558.84417 341.6875 523.6875 C 343.8373 525.53216 346.0625 527.21824 346.0625 526.28125 C 346.0625 524.49554 357.84375 472 357.84375 472 L 346.46875 476.875 C 348.46276 457.90879 350 443.78125 350 443.78125 L 268.5625 408.0625 z "
       id="path2991" />
    <path
       style="fill:#ffcaf4;stroke:#ff9be9;stroke-width:3;stroke-linecap:butt;stroke-linejoin:miter;stroke-opacity:1;fill-opacity:1;stroke-miterlimit:4;stroke-dasharray:none"
       d="M 250,312.375 281.4375,343.78125 270,392.375 l -14.28125,-45.71875 -71.4375,-22.875 55.71875,32.875 -9.0625,25.625 L 174.28125,329.5 57.15625,440.9375 171.4375,373.78125 l 21.42857,34.28571 3.97768,34.58929 21.4375,22.84375 20.28125,-16 22.58482,11.72768 17.43304,-20.28572 23.9866,24.5625 22.87054,-22.85714 19.97768,31.43304 18.85714,-47.44643 28.57143,8.58482 -25.6875,70 67.125,-77.15625 -49.46875,-42.28125 30.90625,5.15625 -48.5625,-58.5625 -61.4375,30 -1.4375,-21.4375 z"
       id="path2986"
       inkscape:connector-curvature="0"
       sodipodi:nodetypes="ccccccccccccccccccccccccccccc" />
    <path
       style="fill:#fff8f8;stroke:none;stroke-width:3;stroke-linecap:butt;stroke-linejoin:miter;stroke-opacity:1;fill-opacity:1;stroke-miterlimit:4;stroke-dasharray:none"
       d="m 230,478.07647 7.14286,43.92857 c 0,0 27.14285,-1.78572 27.14285,-3.92857 0,-2.14286 4.64286,-46.78572 4.64286,-46.78572 z"
       id="path3002"
       inkscape:connector-curvature="0" />
    <path
       style="fill:#b3e5ee;fill-opacity:1;stroke:none"
       d="m 245.92349,521.54329 -3.92857,-31.97697 25.42213,-3.5931 -3.23595,32.8392 z"
       id="path3012"
       inkscape:connector-curvature="0"
       sodipodi:nodetypes="ccccc" />
    <path
       style="fill:#fff8f8;stroke:none;stroke-width:3;stroke-linecap:butt;stroke-linejoin:miter;stroke-opacity:1;fill-opacity:1;stroke-miterlimit:4;stroke-dasharray:none"
       d="m 295.35714,472.00504 1.42857,45.35714 25.35715,1.42857 6.07143,-50.71428 z"
       id="path3004"
       inkscape:connector-curvature="0" />
    <path
       style="fill:none;stroke:#000000;stroke-width:1px;stroke-linecap:butt;stroke-linejoin:miter;stroke-opacity:1"
       d="m 281.78571,522.36218 -1.07142,25.71429"
       id="path3008"
       inkscape:connector-curvature="0" />
    <path
       style="fill:none;stroke:#000000;stroke-width:1px;stroke-linecap:butt;stroke-linejoin:miter;stroke-opacity:1"
       d="m 267.5,555.93361 12.85714,-9.28571 11.42857,6.78571"
       id="path3010"
       inkscape:connector-curvature="0" />
    <path
       style="fill:#b3e5ee;fill-opacity:1;stroke:none"
       d="m 295.86222,485.84695 21.3673,0.35714 -1.82533,32.02031 -19.20649,-0.58802 z"
       id="path3014"
       inkscape:connector-curvature="0"
       sodipodi:nodetypes="ccccc" />
    <path
       style="fill:#fbdcf5;fill-opacity:1;stroke:none"
       d="m 220.32124,388.10185 -41.11157,-42.78547 -38.49538,25.89647 35.1317,-35.27924 z"
       id="path3784"
       inkscape:connector-curvature="0" />
    <path
       style="fill:#fbdcf5;fill-opacity:1;stroke:none"
       d="m 266.07143,398.19901 -14.28572,-51.83647 c 0,0 -18.92857,49.85798 -16.07142,45.901 2.85714,-3.95699 17.14285,-30.07308 17.14285,-30.07308 z"
       id="path3786"
       inkscape:connector-curvature="0" />
    <path
       style="fill:#fbdcf5;fill-opacity:1;stroke:none"
       d="m 272.77335,397.71932 c 10.14583,-26.04387 13.31642,-54.72987 13.31642,-54.72987 l -16.80406,-20.38216 19.97462,20.7596 c 0,0 -4.4388,33.21537 -16.48698,54.35243 z"
       id="path3788"
       inkscape:connector-curvature="0" />
    <path
       style="fill:#e5a6da;stroke:none;stroke-width:1px;stroke-linecap:butt;stroke-linejoin:miter;stroke-opacity:1;fill-opacity:1"
       d="m 178.57143,377.00504 17.14286,31.42857 3.92857,33.92857 11.78571,10.35714 -12.5,-46.78571 z"
       id="path3790"
       inkscape:connector-curvature="0" />
    <path
       style="fill:#fbdcf5;stroke:none;stroke-width:1px;stroke-linecap:butt;stroke-linejoin:miter;stroke-opacity:1;fill-opacity:1"
       d="m 365.71429,423.79075 32.85714,11.42857 c 0,0 -12.5,24.28572 -11.07143,23.21429 1.42857,-1.07143 21.07143,-27.5 21.07143,-27.5 z"
       id="path3792"
       inkscape:connector-curvature="0" />
    <path
       style="fill:#fbdcf5;fill-opacity:1;stroke:none"
       d="m 316.42857,365.86547 49.28572,-27.56928 32.14285,41.56599 -35,-29.26585 z"
       id="path3794"
       inkscape:connector-curvature="0" />
    <path
       style="fill:#e5a6da;stroke:none;stroke-width:1px;stroke-linecap:butt;stroke-linejoin:miter;stroke-opacity:1;fill-opacity:1"
       d="m 297.5,388.79075 45,-10.35714 30.71429,16.07143 -33.57143,-10.35714 z"
       id="path3796"
       inkscape:connector-curvature="0" />
    <path
       style="fill:#e5a6da;stroke:none;stroke-width:1px;stroke-linecap:butt;stroke-linejoin:miter;stroke-opacity:1;fill-opacity:1"
       d="m 262.5,404.86218 -17.5,-3.92857 -18.21429,32.14286 19.64286,-26.78572 z"
       id="path3798"
       inkscape:connector-curvature="0" />
    <path
       style="fill:#e5a6da;stroke:none;stroke-width:1px;stroke-linecap:butt;stroke-linejoin:miter;stroke-opacity:1;fill-opacity:1"
       d="m 341.07143,399.1479 -25.71429,-2.14286 -37.5,11.07143 L 312.5,393.79075 z"
       id="path3800"
       inkscape:connector-curvature="0" />
    <path
       style="fill:#e5a6da;fill-opacity:1;stroke:none"
       d="m 344.58158,466.96914 c 1.78571,-3.92857 -5.73351,-33.85242 -5.73351,-33.85242 l -9.31725,7.80202 z"
       id="path3802"
       inkscape:connector-curvature="0"
       sodipodi:nodetypes="cccc" />
    <path
       style="fill:#e5a6da;stroke:none;stroke-width:1px;stroke-linecap:butt;stroke-linejoin:miter;stroke-opacity:1;fill-opacity:1"
       d="m 283.57143,440.57647 13.57143,-0.71429 5,20.71429 z"
       id="path3804"
       inkscape:connector-curvature="0" />
    <path
       style="fill:#e5a6da;stroke:none;stroke-width:1px;stroke-linecap:butt;stroke-linejoin:miter;stroke-opacity:1;fill-opacity:1"
       d="M 240.71429,448.79075 260,459.1479 l -13.21429,-15 z"
       id="path3806"
       inkscape:connector-curvature="0" />
    <path
       style="fill:#dfad85;fill-opacity:1;stroke:none"
       d="m 231.42857,459.50504 28.21428,2.5 -21.78571,-10.35714 z"
       id="path5795"
       inkscape:connector-curvature="0" />
    <path
       style="fill:#dfad85;stroke:none;stroke-width:1px;stroke-linecap:butt;stroke-linejoin:miter;stroke-opacity:1;fill-opacity:1"
       d="M 273.57143,451.29075 300,465.93361 278.21429,444.50504 z"
       id="path5797"
       inkscape:connector-curvature="0" />
    <path
       style="fill:#dfad85;stroke:none;stroke-width:1px;stroke-linecap:butt;stroke-linejoin:miter;stroke-opacity:1;fill-opacity:1"
       d="m 318.92857,453.79075 22.5,18.92857 -16.42857,-25 z"
       id="path5799"
       inkscape:connector-curvature="0" />
    <path
       style="fill:#dfad85;fill-opacity:1;stroke:none"
       d="m 218.39811,523.18479 8.95024,90.29587 32.62998,-2.43872 -24.26404,-24.39404 z"
       id="path5801"
       inkscape:connector-curvature="0"
       sodipodi:nodetypes="ccccc" />
    <path
       style="color:#000000;fill:#fed8c1;fill-opacity:1;fill-rule:nonzero;stroke:#dfad85;stroke-width:3;stroke-linecap:butt;stroke-linejoin:miter;stroke-miterlimit:4;stroke-opacity:1;stroke-dasharray:none;stroke-dashoffset:0;marker:none;visibility:visible;display:inline;overflow:visible;enable-background:accumulate"
       d="m 23.34375,692.9375 -5.90625,2.125 0,5.1875 -9.875,-6.15625 -1.90625,7.09375 -6.125,-2.375 -0.46875,8.5 -8.5,-2.34375 -0.46875,7.0625 -6.59375,-1.40625 0.707547,7.29245 21.2187502,17.9375 0.2299528,-0.0112 81.21875,91.25 L 190.90625,730.625 146.46875,704.875 82.3125,778.625 26.412146,720.78125 26.40625,720.0625 26.875,700 z"
       id="path5851"
       inkscape:connector-curvature="0"
       sodipodi:nodetypes="ccccccccccccccccccccc" />
    <path
       style="color:#000000;fill:#fed8c1;fill-opacity:1;fill-rule:nonzero;stroke:#dfad85;stroke-width:3;stroke-linecap:butt;stroke-linejoin:miter;stroke-miterlimit:4;stroke-opacity:1;stroke-dasharray:none;stroke-dashoffset:0;marker:none;visibility:visible;display:inline;overflow:visible;enable-background:accumulate"
       d="m 477.34375,580.53125 -3.53125,7.09375 1.1763,21.2105 L 475,608.21875 433.34375,736.6875 399,697.28125 l -15.65625,43.4375 53.03125,61.625 59.53125,-178.09375 0.0147,0.21639 0.079,-0.27889 21.21875,-17.9375 0,-8 -6.59375,1.40625 -0.46875,-7.09375 -8.5,2.375 -0.46875,-8.5 -6.125,2.375 -1.90625,-7.09375 -9.90625,6.125 0,-5.1875 z"
       id="path5853"
       inkscape:connector-curvature="0"
       sodipodi:nodetypes="cccccccccccccccccccccc" />
    <path
       style="fill:#000000;fill-opacity:1;stroke:#000000;stroke-width:1px;stroke-linecap:butt;stroke-linejoin:miter;stroke-opacity:1"
       d="m 276.7818,684.66665 -33.33504,-40.91117 -52.52793,2.52538 -50.00255,64.64977 26.02412,50.0069 21.66226,-20.70197 -6.7752,262.62914 218.84596,-1.1782 -43.79371,-272.70529 29.1465,27.04914 17.02466,-57.22156 -53.03301,-56.56854 -44.44671,2.02031 z"
       id="path5817"
       inkscape:connector-curvature="0"
       sodipodi:nodetypes="cccccccccccccc" />
    <path
       style="fill:none;stroke:#000000;stroke-width:1px;stroke-linecap:butt;stroke-linejoin:miter;stroke-opacity:1"
       d="m 237.00704,522.15836 27.14785,-3.28299"
       id="path5821"
       inkscape:connector-curvature="0" />
    <path
       style="fill:none;stroke:#000000;stroke-width:1px;stroke-linecap:butt;stroke-linejoin:miter;stroke-opacity:1"
       d="m 229.68344,478.343 39.26968,-7.07107"
       id="path5823"
       inkscape:connector-curvature="0" />
    <path
       style="fill:none;stroke:#000000;stroke-width:1px;stroke-linecap:butt;stroke-linejoin:miter;stroke-opacity:1"
       d="m 295.34335,472.15581 33.20877,-4.04061"
       id="path5825"
       inkscape:connector-curvature="0" />
    <path
       style="fill:none;stroke:#000000;stroke-width:1px;stroke-linecap:butt;stroke-linejoin:miter;stroke-opacity:1"
       d="m 296.47977,517.48641 25.50635,1.38896"
       id="path5827"
       inkscape:connector-curvature="0" />
    <path
       style="fill:#dfad85;stroke:none;stroke-width:1px;stroke-linecap:butt;stroke-linejoin:miter;stroke-opacity:1;color:#000000;fill-opacity:1;fill-rule:nonzero;marker:none;visibility:visible;display:inline;overflow:visible;enable-background:accumulate"
       d="m 254.55844,612.94582 -10.85914,31.31473 c 0,0 31.06219,37.62819 30.55712,36.61803 -0.50508,-1.01015 -13.38452,-39.90102 -13.38452,-39.90102 l 5.05076,-30.05204 z"
       id="path5901"
       inkscape:connector-curvature="0" />
    <path
       style="color:#000000;fill:#dfad85;fill-opacity:1;fill-rule:nonzero;stroke:none;stroke-width:1px;marker:none;visibility:visible;display:inline;overflow:visible;enable-background:accumulate"
       d="M 86.785714,826.6479 C 87.5,825.21933 95,818.79075 95,818.79075 L 4.5687332,735.53603 4.2857143,735.93361 z"
       id="path5917"
       inkscape:connector-curvature="0"
       sodipodi:nodetypes="ccccc" />
    <path
       style="fill:#85c3cd;fill-opacity:1;stroke:none"
       d="m 248.45519,512.91377 -3.57734,-23.903 23.14929,-2.68587 -2.94665,24.54751 z"
       id="path3012-6"
       inkscape:connector-curvature="0"
       sodipodi:nodetypes="ccccc" />
    <path
       sodipodi:type="arc"
       style="color:#000000;fill:#060606;fill-opacity:1;fill-rule:nonzero;stroke:none;stroke-width:3;marker:none;visibility:visible;display:inline;overflow:visible;enable-background:accumulate"
       id="path5925-9"
       sodipodi:cx="255"
       sodipodi:cy="504.86218"
       sodipodi:rx="7.5"
       sodipodi:ry="13.928572"
       d="m 262.5,504.86218 a 7.5,13.928572 0 1 1 -15,0 7.5,13.928572 0 1 1 15,0 z"
       transform="matrix(0.71670366,0.1594903,-0.07432052,0.46233411,115.78465,220.76222)" />
    <path
       sodipodi:type="arc"
       style="color:#000000;fill:#ffffff;fill-opacity:1;fill-rule:nonzero;stroke:none;stroke-width:3;marker:none;visibility:visible;display:inline;overflow:visible;enable-background:accumulate"
       id="path5925"
       sodipodi:cx="255"
       sodipodi:cy="504.86218"
       sodipodi:rx="7.5"
       sodipodi:ry="13.928572"
       d="m 262.5,504.86218 a 7.5,13.928572 0 1 1 -15,0 7.5,13.928572 0 1 1 15,0 z"
       transform="matrix(0.40348155,0.08978801,-0.04184011,0.26027952,179.75356,338.77524)" />
    <path
       style="color:#000000;fill:#85c3cd;fill-opacity:1;fill-rule:nonzero;stroke:none;marker:none;visibility:visible;display:inline;overflow:visible;enable-background:accumulate"
       d="m 295.70043,485.64032 18.73128,0.27914 -1.60014,25.02724 -16.83705,-0.4596 z"
       id="path3014-0"
       inkscape:connector-curvature="0"
       sodipodi:nodetypes="ccccc" />
    <path
       sodipodi:type="arc"
       style="color:#000000;fill:#000000;fill-opacity:1;fill-rule:nonzero;stroke:none;stroke-width:3;marker:none;visibility:visible;display:inline;overflow:visible;enable-background:accumulate"
       id="path5925-2-4"
       sodipodi:cx="255"
       sodipodi:cy="504.86218"
       sodipodi:rx="7.5"
       sodipodi:ry="13.928572"
       d="m 262.5,504.86218 a 7.5,13.928572 0 1 1 -15,0 7.5,13.928572 0 1 1 15,0 z"
       transform="matrix(0.70799296,0.10248243,-0.03835819,0.45462376,141.18951,237.55939)" />
    <path
       sodipodi:type="arc"
       style="color:#000000;fill:#ffffff;fill-opacity:1;fill-rule:nonzero;stroke:none;stroke-width:3;marker:none;visibility:visible;display:inline;overflow:visible;enable-background:accumulate"
       id="path5925-2"
       sodipodi:cx="255"
       sodipodi:cy="504.86218"
       sodipodi:rx="7.5"
       sodipodi:ry="13.928572"
       d="m 262.5,504.86218 a 7.5,13.928572 0 1 1 -15,0 7.5,13.928572 0 1 1 15,0 z"
       transform="matrix(0.40775787,0.05902321,-0.02209182,0.2618337,208.78222,344.49633)" />
    <path
       style="fill:none;stroke:#000000;stroke-width:1px;stroke-linecap:butt;stroke-linejoin:miter;stroke-opacity:1"
       d="m 260.61936,584.66155 53.53808,-12.12183"
       id="path6016"
       inkscape:connector-curvature="0" />
  </g>
  <g
     inkscape:groupmode="layer"
     id="layer3"
     inkscape:label="Layer#1">
    <path
       style="fill:#d9a066;stroke:none;stroke-width:1px;stroke-linecap:butt;stroke-linejoin:miter;stroke-opacity:1;fill-opacity:1"
       d="m -65.714286,996.6479 -202.857144,205.7143 1177.14286,10 -172.85714,-255.7143 z"
       id="path6179"
       inkscape:connector-curvature="0" />
    <path
       style="fill:#eaeaea;stroke:#000000;stroke-width:1px;stroke-linecap:butt;stroke-linejoin:miter;stroke-opacity:1;fill-opacity:1"
       d="M 30.304576,878.61594 93.944187,1097.819 460.62956,1094.7886 510.12704,832.14893 z"
       id="path6055"
       inkscape:connector-curvature="0" />
    <g
       id="g6139"
       transform="matrix(2.3361833,-0.22003275,0.22003275,2.3361833,-1349.3885,-695.99519)">
      <g
         id="layer1-6"
         transform="translate(607.25397,-271.88337)">
        <path
           style="fill:#ffffff;fill-opacity:0.55026455;fill-rule:nonzero;stroke:none"
           id="path2995"
           transform="translate(0,1022.3622)"
           d="m 18.169642,8.59375 a 6.4732141,2.5223215 0 1 1 -12.9464279,0 6.4732141,2.5223215 0 1 1 12.9464279,0 z"
           inkscape:connector-curvature="0" />
        <path
           style="fill:url(#radialGradient6148);fill-opacity:1;fill-rule:nonzero;stroke:none"
           id="path3791"
           transform="matrix(1.00037,0,0,1.0067283,0,1022.2875)"
           d="m 29.988905,14.973981 a 14.994453,14.89975 0 1 1 -29.988905,0 14.994453,14.89975 0 1 1 29.988905,0 z"
           inkscape:connector-curvature="0" />
      </g>
      <g
         style="display:inline"
         id="layer2-0"
         transform="translate(607.25397,750.4788)">
        <path
           style="fill:none;stroke:#2a4448;stroke-width:0.79196137px;stroke-linecap:butt;stroke-linejoin:miter;stroke-opacity:1"
           id="path3794-3"
           d="M 4.3785326,17.978165 15.153557,7.20314 26.178582,17.978164 z"
           inkscape:connector-curvature="0" />
      </g>
      <g
         id="layer3-6"
         transform="translate(607.25397,750.4788)">
        <path
           style="fill:#111111;fill-opacity:0.7254902;fill-rule:nonzero;stroke:none"
           id="path3807"
           transform="translate(4.8660714,1.3392857)"
           d="m 15.625,13.080358 a 5.4017859,2.0982144 0 1 1 -10.8035717,0 5.4017859,2.0982144 0 1 1 10.8035717,0 z"
           inkscape:connector-curvature="0" />
      </g>
    </g>
    <path
       style="fill:#ffffff;stroke:none;stroke-width:1px;stroke-linecap:butt;stroke-linejoin:miter;stroke-opacity:1;fill-opacity:1"
       d="M 521.42857,992.36218 720,972.36218 845.71429,1183.7908 530,1178.0765 z"
       id="path6195"
       inkscape:connector-curvature="0" />
    <path
       style="fill:#a8743f;stroke:none;stroke-width:1px;stroke-linecap:butt;stroke-linejoin:miter;stroke-opacity:1;color:#000000;fill-opacity:1;fill-rule:nonzero;marker:none;visibility:visible;display:inline;overflow:visible;enable-background:accumulate"
       d="m -267.92453,1202.8339 0,33.0188 1177.35849,-0.4716 -1.88679,-23.1133 z"
       id="path6197"
       inkscape:connector-curvature="0" />
    <flowRoot
       xml:space="preserve"
       id="flowRoot6237"
       style="font-size:40px;font-style:normal;font-weight:normal;line-height:125%;letter-spacing:0px;word-spacing:0px;fill:#000000;fill-opacity:1;stroke:none;font-family:Sans"><flowRegion
         id="flowRegion6239"><rect
           id="rect6241"
           width="264.16443"
           height="66.708183"
           x="680.42352"
           y="391.95114" /></flowRegion><flowPara
         id="flowPara6243"
         style="line-height:140.99999761999999000%;font-size:72px">XML</flowPara></flowRoot>  </g>
  <g
     inkscape:label="Layer#2"
     id="layer4"
     inkscape:groupmode="layer">
    <path
       style="fill:none;stroke:#dfad85;stroke-width:1px;stroke-linecap:butt;stroke-linejoin:miter;stroke-opacity:1"
       d="m 17.924528,701.65464 0.235849,6.36792"
       id="path7136"
       inkscape:connector-curvature="0" />
    <path
       style="fill:none;stroke:#dfad85;stroke-width:1px;stroke-linecap:butt;stroke-linejoin:miter;stroke-opacity:1"
       d="m 3.5377359,700.4754 6.1320755,5.89622"
       id="path7138"
       inkscape:connector-curvature="0" />
    <path
       style="fill:none;stroke:#dfad85;stroke-width:1px;stroke-linecap:butt;stroke-linejoin:miter;stroke-opacity:1"
       d="m -3.0660373,705.66407 c 2.14703369,1.82613 13.2926813,12.08846 6.132075,5.18868"
       id="path7140"
       inkscape:connector-curvature="0"
       sodipodi:nodetypes="cc" />
    <path
       style="fill:none;stroke:#dfad85;stroke-width:1px;stroke-linecap:butt;stroke-linejoin:miter;stroke-opacity:1"
       d="m -9.4339615,712.97539 6.6037727,5.66038"
       id="path7142"
       inkscape:connector-curvature="0" />
    <path
       style="fill:none;stroke:#dfad85;stroke-width:1px;stroke-linecap:butt;stroke-linejoin:miter;stroke-opacity:1"
       d="m 482.31132,589.50841 -0.23585,6.36792"
       id="path7136-2"
       inkscape:connector-curvature="0" />
    <path
       style="fill:none;stroke:#dfad85;stroke-width:1px;stroke-linecap:butt;stroke-linejoin:miter;stroke-opacity:1"
       d="m 495.04716,589.74426 -6.13207,5.89622"
       id="path7138-1"
       inkscape:connector-curvature="0" />
    <path
       style="fill:none;stroke:#dfad85;stroke-width:1px;stroke-linecap:butt;stroke-linejoin:miter;stroke-opacity:1"
       d="m 501.41509,595.87633 -6.13208,5.18868"
       id="path7140-4"
       inkscape:connector-curvature="0" />
    <path
       style="fill:none;stroke:#dfad85;stroke-width:1px;stroke-linecap:butt;stroke-linejoin:miter;stroke-opacity:1"
       d="m 509.66981,600.59331 -6.60378,5.66038"
       id="path7142-9"
       inkscape:connector-curvature="0" />
  </g>
</svg>
