<?xml version="1.0" encoding="UTF-8" standalone="no"?>
<!-- Created with Inkscape (http://www.inkscape.org/) -->

<svg
   xmlns:dc="http://purl.org/dc/elements/1.1/"
   xmlns:cc="http://creativecommons.org/ns#"
   xmlns:rdf="http://www.w3.org/1999/02/22-rdf-syntax-ns#"
   xmlns:svg="http://www.w3.org/2000/svg"
   xmlns="http://www.w3.org/2000/svg"
   xmlns:sodipodi="http://sodipodi.sourceforge.net/DTD/sodipodi-0.dtd"
   xmlns:inkscape="http://www.inkscape.org/namespaces/inkscape"
   width="40"
   height="40"
   id="svg2"
   version="1.1"
   inkscape:version="0.48.4 r9939"
   sodipodi:docname="ship.svg">
  <defs
     id="defs4">
    <filter
       id="filter5205"
       inkscape:label="Glow"
       inkscape:menu="Shadows and Glows"
       inkscape:menu-tooltip="Glow of object's own color at the edges"
       color-interpolation-filters="sRGB">
      <feGaussianBlur
         id="feGaussianBlur5207"
         stdDeviation="5"
         result="result91" />
      <feComposite
         id="feComposite5209"
         in2="result91"
         in="SourceGraphic"
         operator="over" />
    </filter>
    <filter
       inkscape:collect="always"
       id="filter5243"
       x="-0.51248901"
       width="2.024978"
       y="-1.0025499"
       height="3.0050998">
      <feGaussianBlur
         inkscape:collect="always"
         stdDeviation="6.5395734"
         id="feGaussianBlur5245" />
    </filter>
  </defs>
  <sodipodi:namedview
     id="base"
     pagecolor="#ffffff"
     bordercolor="#666666"
     borderopacity="1.0"
     inkscape:pageopacity="0.0"
     inkscape:pageshadow="2"
     inkscape:zoom="22.4"
     inkscape:cx="14.757006"
     inkscape:cy="12.728217"
     inkscape:document-units="px"
     inkscape:current-layer="layer1"
     showgrid="false"
     inkscape:window-width="2498"
     inkscape:window-height="1417"
     inkscape:window-x="54"
     inkscape:window-y="-8"
     inkscape:window-maximized="1" />
  <metadata
     id="metadata7">
    <rdf:RDF>
      <cc:Work
         rdf:about="">
        <dc:format>image/svg+xml</dc:format>
        <dc:type
           rdf:resource="http://purl.org/dc/dcmitype/StillImage" />
      </cc:Work>
    </rdf:RDF>
  </metadata>
  <g
     inkscape:label="Layer 1"
     inkscape:groupmode="layer"
     id="layer1"
     transform="translate(0,-1012.3622)">
    <path
       inkscape:connector-curvature="0"
       style="fill:#ffffff;fill-opacity:1;stroke:none;opacity:0.84955751999999984;filter:url(#filter5243)"
       d="m 9.3794639,1024.3115 c 0,0 0.6554301,1.5203 1.1250001,2.5625 -0.401829,0.1163 -0.7847971,0.626 -1.0625001,1.375 -0.239981,-0.2783 -0.49443,-0.4375 -0.78125,-0.4375 -0.268791,0 -0.552757,0.1287 -0.78125,0.375 -0.316206,-0.8188 -0.726539,-1.3437 -1.1875,-1.3437 -0.983382,0 -1.78125,2.2609 -1.78125,5.0625 0,2.8015 0.797868,5.0937 1.78125,5.0937 0.460961,0 0.871294,-0.525 1.1875,-1.3437 0.228493,0.2463 0.512459,0.375 0.78125,0.375 0.28682,0 0.541269,-0.1593 0.78125,-0.4375 0.185048,0.499 0.409402,0.8878 0.6562501,1.125 l 0,1.25 c 0,0 2.620984,3.0794 6.40625,1.5937 3.785267,-1.4857 19.03125,-3.8437 19.03125,-3.8437 l 0,-0.1875 0,-2.125 -4.0625,-2.625 c 0,0 -7.134861,-0.8674 -12.84375,-2.625 l -3.53125,-3.8438 -5.7187501,0 z"
       id="path2985" />
  </g>
  <g
     inkscape:groupmode="layer"
     id="layer4"
     inkscape:label="Layer"
     sodipodi:insensitive="true">
    <path
       inkscape:connector-curvature="0"
       style="fill:#ededed;fill-opacity:1;stroke:none"
       d="m 9.2901787,11.949257 c 0,0 0.65543,1.5203 1.1250003,2.5625 -0.401829,0.1163 -0.7847973,0.626 -1.0625003,1.375 -0.239981,-0.2783 -0.49443,-0.4375 -0.78125,-0.4375 -0.268791,0 -0.552757,0.1287 -0.78125,0.375 -0.316206,-0.8188 -0.726539,-1.3437 -1.1875,-1.3437 -0.983382,0 -1.78125,2.2609 -1.78125,5.0625 0,2.8015 0.797868,5.0937 1.78125,5.0937 0.460961,0 0.871294,-0.525 1.1875,-1.3437 0.228493,0.2463 0.512459,0.375 0.78125,0.375 0.28682,0 0.541269,-0.1593 0.78125,-0.4375 0.185048,0.499 0.409402,0.8878 0.6562503,1.125 l 0,1.25 c 0,0 2.620984,3.0794 6.40625,1.5937 3.785267,-1.4857 19.03125,-3.8437 19.03125,-3.8437 l 0,-0.1875 0,-2.125 -4.0625,-2.625 c 0,0 -7.134861,-0.8674 -12.84375,-2.625 l -3.53125,-3.8438 -5.7187503,0 z"
       id="path2985-8" />
  </g>
</svg>
