<?xml version="1.0" encoding="UTF-8" standalone="no"?>
<!-- Created with Inkscape (http://www.inkscape.org/) -->

<svg
   xmlns:dc="http://purl.org/dc/elements/1.1/"
   xmlns:cc="http://creativecommons.org/ns#"
   xmlns:rdf="http://www.w3.org/1999/02/22-rdf-syntax-ns#"
   xmlns:svg="http://www.w3.org/2000/svg"
   xmlns="http://www.w3.org/2000/svg"
   xmlns:sodipodi="http://sodipodi.sourceforge.net/DTD/sodipodi-0.dtd"
   xmlns:inkscape="http://www.inkscape.org/namespaces/inkscape"
   width="32"
   height="32"
   id="svg2"
   version="1.1"
   inkscape:version="0.48.4 r9939"
   sodipodi:docname="ship_base.svg">
  <defs
     id="defs4" />
  <sodipodi:namedview
     id="base"
     pagecolor="#ffffff"
     bordercolor="#666666"
     borderopacity="1.0"
     inkscape:pageopacity="0.0"
     inkscape:pageshadow="2"
     inkscape:zoom="22.4"
     inkscape:cx="7.7927203"
     inkscape:cy="10.942503"
     inkscape:document-units="px"
     inkscape:current-layer="layer1"
     showgrid="false"
     inkscape:window-width="2498"
     inkscape:window-height="1417"
     inkscape:window-x="54"
     inkscape:window-y="-8"
     inkscape:window-maximized="1" />
  <metadata
     id="metadata7">
    <rdf:RDF>
      <cc:Work
         rdf:about="">
        <dc:format>image/svg+xml</dc:format>
        <dc:type
           rdf:resource="http://purl.org/dc/dcmitype/StillImage" />
        <dc:title />
      </cc:Work>
    </rdf:RDF>
  </metadata>
  <g
     inkscape:label="Layer 1"
     inkscape:groupmode="layer"
     id="layer1"
     transform="translate(0,-1020.3622)">
    <path
       style="fill:#ededed;fill-opacity:1;stroke:none"
       d="M 5.28125 7.34375 C 5.28125 7.34375 5.93668 8.8640169 6.40625 9.90625 C 6.0044202 10.022508 5.6214528 10.532255 5.34375 11.28125 C 5.1037689 11.002975 4.8493198 10.84375 4.5625 10.84375 C 4.2937089 10.84375 4.0097425 10.972425 3.78125 11.21875 C 3.4650435 10.399983 3.0547104 9.875 2.59375 9.875 C 1.6103679 9.875 0.8125 12.135932 0.8125 14.9375 C 0.8125 17.739068 1.6103679 20.03125 2.59375 20.03125 C 3.0547104 20.03125 3.4650435 19.506267 3.78125 18.6875 C 4.0097425 18.933825 4.2937089 19.0625 4.5625 19.0625 C 4.8493198 19.0625 5.1037689 18.903275 5.34375 18.625 C 5.5287975 19.124094 5.7531516 19.51281 6 19.75 L 6 21 C 6 21 8.6209836 24.07945 12.40625 22.59375 C 16.191517 21.10805 31.4375 18.75 31.4375 18.75 L 31.4375 18.5625 L 31.4375 16.4375 L 27.375 13.8125 C 27.375 13.8125 20.240139 12.9451 14.53125 11.1875 L 11 7.34375 L 5.28125 7.34375 z "
       transform="translate(0,1020.3622)"
       id="path2985" />
  </g>
</svg>
