<?xml version="1.0" encoding="UTF-8" standalone="no"?>
<!-- Created with Inkscape (http://www.inkscape.org/) -->

<svg
   xmlns:dc="http://purl.org/dc/elements/1.1/"
   xmlns:cc="http://creativecommons.org/ns#"
   xmlns:rdf="http://www.w3.org/1999/02/22-rdf-syntax-ns#"
   xmlns:svg="http://www.w3.org/2000/svg"
   xmlns="http://www.w3.org/2000/svg"
   xmlns:sodipodi="http://sodipodi.sourceforge.net/DTD/sodipodi-0.dtd"
   xmlns:inkscape="http://www.inkscape.org/namespaces/inkscape"
   width="45"
   height="45"
   id="svg3222"
   version="1.1"
   inkscape:version="0.48.4 r9939"
   sodipodi:docname="icon_water_small.svg">
  <defs
     id="defs3224" />
  <sodipodi:namedview
     id="base"
     pagecolor="#ffffff"
     bordercolor="#666666"
     borderopacity="1.0"
     inkscape:pageopacity="0.0"
     inkscape:pageshadow="2"
     inkscape:zoom="2.8"
     inkscape:cx="75.391444"
     inkscape:cy="59.273084"
     inkscape:document-units="px"
     inkscape:current-layer="layer1"
     showgrid="false"
     inkscape:window-width="2498"
     inkscape:window-height="1417"
     inkscape:window-x="54"
     inkscape:window-y="-8"
     inkscape:window-maximized="1" />
  <metadata
     id="metadata3227">
    <rdf:RDF>
      <cc:Work
         rdf:about="">
        <dc:format>image/svg+xml</dc:format>
        <dc:type
           rdf:resource="http://purl.org/dc/dcmitype/StillImage" />
        <dc:title />
      </cc:Work>
    </rdf:RDF>
  </metadata>
  <g
     inkscape:label="Layer 1"
     inkscape:groupmode="layer"
     id="layer1"
     transform="translate(0,-1007.3622)">
    <path
       sodipodi:type="arc"
       style="fill:#ffffff;fill-opacity:0.79365081;stroke:none"
       id="path3015"
       sodipodi:cx="-36.785713"
       sodipodi:cy="-66.785713"
       sodipodi:rx="21.071428"
       sodipodi:ry="21.071428"
       d="m -15.714285,-66.785713 a 21.071428,21.071428 0 1 1 -42.142856,0 21.071428,21.071428 0 1 1 42.142856,0 z"
       transform="translate(60,1096.2908)" />
    <path
       style="fill:#000000;fill-opacity:1;stroke:none"
       d="m 29.358927,1027.2518 c -0.0039,0 -0.0079,0 -0.0119,-0.011 -1.1e-5,-3e-4 -5.09e-4,-7e-4 -6.79e-4,0 -3.324356,-1.7328 -5.825251,3.656 -5.989442,4.0197 -0.01144,0.024 -0.02125,0.034 0.01033,0.017 0.380507,0 6.436411,-0.081 5.9813,-4.0238 z"
       id="path4198-1-7"
       inkscape:connector-curvature="0"
       sodipodi:nodetypes="ccccccc" />
    <path
       style="fill:#ffffff;fill-opacity:1;stroke:#000000;stroke-width:0.01652221px;stroke-linecap:butt;stroke-linejoin:miter;stroke-opacity:1"
       d="m 28.911578,1028.8048 c 0,0 -0.729397,1.352 -2.386281,1.673 -0.195916,0.038 2.386281,-1.673 2.386281,-1.673 z"
       id="path4337-1"
       inkscape:connector-curvature="0"
       sodipodi:nodetypes="csc" />
    <path
       style="fill:#000000;fill-opacity:1;stroke:none"
       d="m 30.304025,1021.7159 c -0.0039,0 -0.0079,0 -0.0119,-0.011 -1.2e-5,-4e-4 -5.1e-4,-7e-4 -6.8e-4,0 -3.324355,-1.7327 -5.82525,3.656 -5.989442,4.0197 -0.01144,0.024 -0.02125,0.034 0.01034,0.017 0.380507,0 6.436411,-0.081 5.981301,-4.0238 z"
       id="path4198-1-7-1"
       inkscape:connector-curvature="0"
       sodipodi:nodetypes="ccccccc" />
    <path
       style="fill:#ffffff;fill-opacity:1;stroke:#000000;stroke-width:0.01652221px;stroke-linecap:butt;stroke-linejoin:miter;stroke-opacity:1"
       d="m 29.856675,1023.2687 c 0,0 -0.729396,1.352 -2.38628,1.6731 -0.195916,0.038 2.38628,-1.6731 2.38628,-1.6731 z"
       id="path4337-1-5"
       inkscape:connector-curvature="0"
       sodipodi:nodetypes="csc" />
    <path
       style="fill:#000000;fill-opacity:1;stroke:none"
       d="m 35.284246,1029.272 c -0.0039,0 -0.008,0 -0.0119,-0.011 -1.2e-5,-3e-4 -5.1e-4,-6e-4 -6.8e-4,0 -3.324355,-1.7327 -5.825252,3.656 -5.989443,4.0198 -0.01144,0.024 -0.02125,0.034 0.01034,0.017 0.380507,0 6.436413,-0.081 5.981302,-4.0239 z"
       id="path4198-1-7-2"
       inkscape:connector-curvature="0"
       sodipodi:nodetypes="ccccccc" />
    <path
       style="fill:#ffffff;fill-opacity:1;stroke:#000000;stroke-width:0.01652221px;stroke-linecap:butt;stroke-linejoin:miter;stroke-opacity:1"
       d="m 34.836897,1030.8249 c 0,0 -0.729396,1.352 -2.386281,1.6731 -0.195916,0.037 2.386281,-1.6731 2.386281,-1.6731 z"
       id="path4337-1-7"
       inkscape:connector-curvature="0"
       sodipodi:nodetypes="csc" />
    <path
       style="fill:#000000;fill-opacity:1;stroke:none"
       d="m 26.413763,1033.2357 c -0.0062,0 -0.01234,-0.011 -0.01849,-0.011 -1.9e-5,-4e-4 -8.61e-4,0 -0.001,0 -5.164429,-2.6918 -9.049601,5.6797 -9.304676,6.2448 -0.01777,0.037 -0.03301,0.052 0.01607,0.027 0.591122,0 9.999047,-0.1257 9.292027,-6.2511 z"
       id="path4198-1-7-14"
       inkscape:connector-curvature="0"
       sodipodi:nodetypes="ccccccc" />
    <path
       style="fill:#ffffff;fill-opacity:1;stroke:#000000;stroke-width:0.02566748px;stroke-linecap:butt;stroke-linejoin:miter;stroke-opacity:1"
       d="m 25.718798,1035.6481 c 0,0 -1.133125,2.1004 -3.707116,2.599 -0.30436,0.059 3.707116,-2.599 3.707116,-2.599 z"
       id="path4337-1-2"
       inkscape:connector-curvature="0"
       sodipodi:nodetypes="csc" />
    <path
       style="fill:#000000;fill-opacity:1;stroke:none"
       d="m 22.18704,1027.1223 c -0.0086,0 -0.01721,-0.011 -0.02581,-0.011 -2.6e-5,0 -0.0012,0 -0.0015,0 -7.20916,-3.7576 -12.6325714,7.9284 -12.9886344,8.7173 -0.02481,0.05 -0.04609,0.074 0.02242,0.038 0.8251624,0 13.9579264,-0.1755 12.9709784,-8.7261 z"
       id="path4198-1-7-3"
       inkscape:connector-curvature="0"
       sodipodi:nodetypes="ccccccc" />
    <path
       style="fill:#ffffff;fill-opacity:1;stroke:#000000;stroke-width:0.03582989px;stroke-linecap:butt;stroke-linejoin:miter;stroke-opacity:1"
       d="m 21.216922,1030.4897 c 0,0 -1.581758,2.932 -5.174861,3.6283 -0.424861,0.083 5.174861,-3.6283 5.174861,-3.6283 z"
       id="path4337-1-22"
       inkscape:connector-curvature="0"
       sodipodi:nodetypes="csc" />
  </g>
</svg>
