<?xml version="1.0" encoding="UTF-8" standalone="no"?>
<!-- Created with Inkscape (http://www.inkscape.org/) -->

<svg
   xmlns:dc="http://purl.org/dc/elements/1.1/"
   xmlns:cc="http://creativecommons.org/ns#"
   xmlns:rdf="http://www.w3.org/1999/02/22-rdf-syntax-ns#"
   xmlns:svg="http://www.w3.org/2000/svg"
   xmlns="http://www.w3.org/2000/svg"
   xmlns:sodipodi="http://sodipodi.sourceforge.net/DTD/sodipodi-0.dtd"
   xmlns:inkscape="http://www.inkscape.org/namespaces/inkscape"
   width="85"
   height="90"
   id="svg3222"
   version="1.1"
   inkscape:version="0.48.4 r9939"
   sodipodi:docname="New document 6">
  <defs
     id="defs3224" />
  <sodipodi:namedview
     id="base"
     pagecolor="#ffffff"
     bordercolor="#666666"
     borderopacity="1.0"
     inkscape:pageopacity="0.0"
     inkscape:pageshadow="2"
     inkscape:zoom="2.8"
     inkscape:cx="186.82001"
     inkscape:cy="137.48737"
     inkscape:document-units="px"
     inkscape:current-layer="layer1"
     showgrid="false"
     inkscape:window-width="2498"
     inkscape:window-height="1417"
     inkscape:window-x="54"
     inkscape:window-y="-8"
     inkscape:window-maximized="1" />
  <metadata
     id="metadata3227">
    <rdf:RDF>
      <cc:Work
         rdf:about="">
        <dc:format>image/svg+xml</dc:format>
        <dc:type
           rdf:resource="http://purl.org/dc/dcmitype/StillImage" />
        <dc:title></dc:title>
      </cc:Work>
    </rdf:RDF>
  </metadata>
  <g
     inkscape:label="Layer 1"
     inkscape:groupmode="layer"
     id="layer1"
     transform="translate(0,-962.36218)">
    <g
       id="g3170"
       transform="matrix(0.15798405,0,0,0.15798405,125.65827,994.13146)">
      <g
         id="g4053"
         transform="translate(-547.5732,-132.08812)">
        <path
           style="fill:#000000;fill-opacity:1;stroke:#000000;stroke-width:1px;stroke-linecap:butt;stroke-linejoin:miter;stroke-opacity:1"
           d="m 112.16571,25.983161 c -1.16522,0.0328 -2.34535,0.0981 -3.53125,0.1875 -11.384663,0.85792 -39.375793,6.90504 -52.344863,14.24413 -34.71124,19.64279 -37.37484,34.5114 -34.86057,58.49889 2.51427,23.987489 -4.464,79.558059 -4.464,79.558059 -10.2306899,9.24657 -3.88032,4.10781 -15.4243199,11.54267 l 21.4062499,24.4375 c 0,0 21.80672,-14.76015 -73.25,58.96875 -1.78476,1.38431 -57.031247,5.25 -57.031247,5.25 l 51.062497,69.1875 20.0625,-57.875 c 0,0 60.95982,-75.07143 89.53125,-46.5 28.57143,28.57143 92.656253,120.71875 92.656253,120.71875 l 122.9375,-91.09375 -92.09375,-101.625 c 23.21445,-19.93712 26.16806,-46.20502 22.90625,-66.375 -3.32478,-20.559339 -12.65625,-36.031249 -12.65625,-36.031249 l -0.0312,-0.0625 -0.0312,-0.0312 c 0,0 -10.85935,-17.59078 -30.65625,-30.3125 -11.59984,-7.45417 -26.70914,-13.17971 -44.1875,-12.6875 z m 2.3125,13 c 13.64556,-0.0282 25.09209,4.81154 34.625,10.9375 16.79229,10.79092 26.29503,25.75652 26.46875,26.03125 0.002,0.0025 0.0625,0.09375 0.0625,0.09375 0.0891,0.15014 8.02854,13.58595 10.875,31.187499 2.82212,17.45105 0.99685,37.67448 -18.6875,54.34375 l -53.5625,-59.125 -73.256193,57.98081 c -3.47528,2.75061 -0.34482,-43.80724 -2.18988,-61.410059 -2.15769,-20.58549 0.19235,-31.74415 30.63595,-48.97192 13.37466,-7.56861 34.415663,-11.04563 45.028873,-11.06758 z"
           id="path3039"
           inkscape:connector-curvature="0"
           sodipodi:nodetypes="sssscccscccscccscccssssccscccssss" />
      </g>
      <path
         sodipodi:nodetypes="ccccccc"
         inkscape:connector-curvature="0"
         id="path4198-1-7"
         d="m -655.69713,197.50412 c -0.0233,-0.012 -0.0467,-0.021 -0.07,-0.0331 -7e-5,-0.002 -0.003,-0.004 -0.004,-0.006 -19.55437,-10.19224 -34.26502,21.50538 -35.23082,23.64487 -0.0673,0.13714 -0.125,0.20061 0.0608,0.10316 2.2382,-0.007 37.85996,-0.476 35.18293,-23.66882 z"
         style="fill:#000000;fill-opacity:1;stroke:none" />
      <path
         sodipodi:nodetypes="csc"
         inkscape:connector-curvature="0"
         id="path4337-1"
         d="m -658.32851,206.63807 c 0,0 -4.29042,7.95284 -14.03647,9.8413 -1.15241,0.2233 14.03647,-9.8413 14.03647,-9.8413 z"
         style="fill:#ffffff;fill-opacity:1;stroke:#000000;stroke-width:0.09718621px;stroke-linecap:butt;stroke-linejoin:miter;stroke-opacity:1" />
      <path
         sodipodi:nodetypes="ccccccc"
         inkscape:connector-curvature="0"
         id="path4198-1-7-1"
         d="m -650.13792,164.94025 c -0.0233,-0.012 -0.0467,-0.021 -0.07,-0.0331 -7e-5,-0.002 -0.003,-0.004 -0.004,-0.006 -19.55437,-10.19224 -34.26502,21.50538 -35.23082,23.64487 -0.0673,0.13714 -0.125,0.20061 0.0608,0.10316 2.2382,-0.007 37.85996,-0.476 35.18293,-23.66882 z"
         style="fill:#000000;fill-opacity:1;stroke:none" />
      <path
         sodipodi:nodetypes="csc"
         inkscape:connector-curvature="0"
         id="path4337-1-5"
         d="m -652.7693,174.0742 c 0,0 -4.29042,7.95284 -14.03647,9.8413 -1.15241,0.2233 14.03647,-9.8413 14.03647,-9.8413 z"
         style="fill:#ffffff;fill-opacity:1;stroke:#000000;stroke-width:0.09718621px;stroke-linecap:butt;stroke-linejoin:miter;stroke-opacity:1" />
      <path
         sodipodi:nodetypes="ccccccc"
         inkscape:connector-curvature="0"
         id="path4198-1-7-2"
         d="m -620.84349,209.38697 c -0.0233,-0.012 -0.0467,-0.021 -0.07,-0.0331 -7e-5,-0.002 -0.003,-0.004 -0.004,-0.006 -19.55437,-10.19224 -34.26503,21.50538 -35.23083,23.64487 -0.0673,0.13714 -0.125,0.20061 0.0608,0.10316 2.2382,-0.007 37.85997,-0.476 35.18294,-23.66882 z"
         style="fill:#000000;fill-opacity:1;stroke:none" />
      <path
         sodipodi:nodetypes="csc"
         inkscape:connector-curvature="0"
         id="path4337-1-7"
         d="m -623.47487,218.52092 c 0,0 -4.29042,7.95284 -14.03647,9.8413 -1.15241,0.2233 14.03647,-9.8413 14.03647,-9.8413 z"
         style="fill:#ffffff;fill-opacity:1;stroke:#000000;stroke-width:0.09718621px;stroke-linecap:butt;stroke-linejoin:miter;stroke-opacity:1" />
      <path
         sodipodi:nodetypes="ccccccc"
         inkscape:connector-curvature="0"
         id="path4198-1-7-14"
         d="m -673.02104,232.70201 c -0.0362,-0.0186 -0.0726,-0.0326 -0.10875,-0.0514 -1.1e-4,-0.003 -0.005,-0.006 -0.006,-0.009 -30.37797,-15.83378 -53.23115,33.40888 -54.73154,36.73261 -0.10455,0.21305 -0.19419,0.31165 0.0945,0.16026 3.47707,-0.0109 58.81593,-0.73947 54.65713,-36.76982 z"
         style="fill:#000000;fill-opacity:1;stroke:none" />
      <path
         sodipodi:nodetypes="csc"
         inkscape:connector-curvature="0"
         id="path4337-1-2"
         d="m -677.10893,246.89172 c 0,0 -6.66522,12.35484 -21.80583,15.28859 -1.79029,0.3469 21.80583,-15.28859 21.80583,-15.28859 z"
         style="fill:#ffffff;fill-opacity:1;stroke:#000000;stroke-width:0.15098003px;stroke-linecap:butt;stroke-linejoin:miter;stroke-opacity:1" />
      <path
         sodipodi:nodetypes="ccccccc"
         inkscape:connector-curvature="0"
         id="path4198-1-7-3"
         d="m -697.88328,196.74188 c -0.0505,-0.026 -0.10127,-0.0455 -0.1518,-0.0718 -1.5e-4,-0.004 -0.007,-0.009 -0.009,-0.013 -42.40539,-22.10277 -74.30673,46.63632 -76.40115,51.27599 -0.14595,0.2974 -0.27108,0.43504 0.13185,0.22371 4.85373,-0.0152 82.10267,-1.03225 76.29729,-51.32793 z"
         style="fill:#000000;fill-opacity:1;stroke:none" />
      <path
         sodipodi:nodetypes="csc"
         inkscape:connector-curvature="0"
         id="path4337-1-22"
         d="m -703.58966,216.54966 c 0,0 -9.30415,17.24644 -30.43933,21.34173 -2.4991,0.48424 30.43933,-21.34173 30.43933,-21.34173 z"
         style="fill:#ffffff;fill-opacity:1;stroke:#000000;stroke-width:0.21075688px;stroke-linecap:butt;stroke-linejoin:miter;stroke-opacity:1" />
    </g>
  </g>
</svg>
